<svg width="100" height="100" viewBox="0 0 100 100" fill="none" xmlns="http://www.w3.org/2000/svg">
<g clip-path="url(#clip0)">
<path d="M45.6453 1.77542L1.77028 45.6153C1.20956 46.174 0.764644 46.8379 0.461067 47.569C0.15749 48.3 0.0012207 49.0838 0.0012207 49.8754C0.0012207 50.667 0.15749 51.4508 0.461067 52.1819C0.764644 52.9129 1.20956 53.5768 1.77028 54.1356L45.6453 97.975C48.0043 100.332 51.814 100.332 54.1726 97.975L72.5691 79.5938C74.6816 77.4828 74.6816 74.0606 72.5691 71.95C70.4566 69.8391 67.0316 69.8391 64.9191 71.95L50.973 85.8844C50.3859 86.4711 49.4949 86.4711 48.9078 85.8844L13.8703 50.8758C13.2832 50.2891 13.2832 49.3989 13.8703 48.8121L48.9078 13.8032C49.4949 13.2168 50.3859 13.2168 50.973 13.8032L64.9191 27.7379C67.0316 29.8489 70.4566 29.8489 72.5691 27.7379C74.6816 25.627 74.6816 22.2051 72.5691 20.0942L54.1746 1.71526C51.8062 -0.590988 47.9949 -0.572238 45.6453 1.77542Z" fill="url(#paint0_linear)"/>
<path d="M45.6453 1.77547L1.77028 45.6153C1.20956 46.1741 0.764644 46.838 0.461067 47.569C0.15749 48.3001 0.0012207 49.0839 0.0012207 49.8755C0.0012207 50.6671 0.15749 51.4509 0.461067 52.1819C0.764644 52.913 1.20956 53.5769 1.77028 54.1356L45.6453 97.9751C48.0043 100.332 51.814 100.332 54.1726 97.9751L72.5691 79.5938C74.6816 77.4829 74.6816 74.0606 72.5691 71.9501C70.4566 69.8391 67.0316 69.8391 64.9191 71.9501L50.973 85.8845C50.3859 86.4712 49.4949 86.4712 48.9078 85.8845L13.8703 50.8759C13.2832 50.2892 13.2832 49.3989 13.8703 48.8122L48.9078 13.8032C50.3695 12.543 52.7551 9.9907 56.2574 9.39305C58.8605 8.94969 61.7066 9.92625 64.7953 12.3227L54.175 1.71492C51.8062 -0.590938 47.9953 -0.572188 45.6453 1.77547Z" fill="url(#paint1_linear)"/>
<path d="M76.8155 67.8729C78.928 69.9838 82.353 69.9838 84.4655 67.8729L98.0354 54.3143C98.5961 53.7555 99.041 53.0916 99.3446 52.3605C99.6482 51.6295 99.8045 50.8457 99.8045 50.0541C99.8045 49.2625 99.6482 48.4787 99.3446 47.7477C99.041 47.0166 98.5961 46.3527 98.0354 45.7939L84.3475 32.165C82.2299 30.0568 78.8038 30.06 76.6901 32.1721C74.5776 34.283 74.5776 37.7049 76.6901 39.8158L85.935 49.0533C86.5221 49.64 86.5221 50.5303 85.935 51.117L76.8155 60.2291C74.703 62.34 74.703 65.7623 76.8155 67.8729Z" fill="url(#paint2_linear)"/>
<path d="M50.1277 61.9313C56.6704 61.9313 61.9742 56.6318 61.9742 50.0945C61.9742 43.5573 56.6704 38.2578 50.1277 38.2578C43.5851 38.2578 38.2812 43.5573 38.2812 50.0945C38.2812 56.6318 43.5851 61.9313 50.1277 61.9313Z" fill="url(#paint3_linear)"/>
</g>
<defs>
<linearGradient id="paint0_linear" x1="46.0513" y1="-1.26019e-06" x2="87.7458" y2="25.4622" gradientUnits="userSpaceOnUse">
<stop stop-color="#4285EB"/>
<stop offset="1" stop-color="#2EC7FF"/>
</linearGradient>
<linearGradient id="paint1_linear" x1="51.6438" y1="6.47341e-07" x2="31.0507" y2="106.432" gradientUnits="userSpaceOnUse">
<stop stop-color="#29CDFF"/>
<stop offset="0.3786" stop-color="#148EFF"/>
<stop offset="1" stop-color="#0A60FF"/>
</linearGradient>
<linearGradient id="paint2_linear" x1="92.3185" y1="25.5429" x2="65.5234" y2="67.4476" gradientUnits="userSpaceOnUse">
<stop stop-color="#FA816E"/>
<stop offset="0.41473" stop-color="#F74A5C"/>
<stop offset="1" stop-color="#F51D2C"/>
</linearGradient>
<linearGradient id="paint3_linear" x1="54.4228" y1="29.8085" x2="45.5072" y2="65.4722" gradientUnits="userSpaceOnUse">
<stop stop-color="#FA8E7D"/>
<stop offset="0.51264" stop-color="#F74A5C"/>
<stop offset="1" stop-color="#F51D2C"/>
</linearGradient>
<clipPath id="clip0">
<rect width="100" height="100" fill="white"/>
</clipPath>
</defs>
</svg>
