<svg width="101" height="100" viewBox="0 0 101 100" fill="none" xmlns="http://www.w3.org/2000/svg">
<g clip-path="url(#clip0)">
<path d="M0.333252 87.1059C0.333252 94.2277 6.1063 100 13.2274 100H87.4387C94.561 100 100.333 94.227 100.333 87.1059V12.8945C100.333 5.77227 94.5602 0 87.4391 0H13.2278C6.10552 0 0.333252 5.77305 0.333252 12.8941V87.1055V87.1059Z" fill="#563D7C"/>
<path d="M41.8012 44.2336V30.0723H54.2665C55.454 30.0723 56.5985 30.1711 57.7008 30.3691C58.8032 30.5668 59.7786 30.9199 60.6266 31.4289C61.4743 31.9379 62.1528 32.6445 62.6618 33.5488C63.1704 34.4535 63.4251 35.6125 63.4251 37.0254C63.4251 39.5695 62.6618 41.407 61.1352 42.5375C59.609 43.6684 57.6586 44.2336 55.284 44.2336H41.8012V44.2336ZM28.4875 19.7266V80.2734H57.8282C60.5418 80.2734 63.1848 79.9344 65.7571 79.2559C68.3294 78.5773 70.6188 77.5316 72.6258 76.1184C74.6325 74.7051 76.2297 72.8816 77.4169 70.6488C78.6044 68.4156 79.1977 65.7727 79.1977 62.7199C79.1977 58.932 78.279 55.6957 76.4418 53.0105C74.6043 50.325 71.82 48.4453 68.0887 47.3711C70.8024 46.0711 72.852 44.4031 74.2372 42.368C75.6219 40.3328 76.3145 37.7891 76.3145 34.7359C76.3145 31.9094 75.8481 29.5352 74.9153 27.6129C73.9825 25.691 72.668 24.1504 70.9719 22.9914C69.2762 21.8324 67.2411 20.9984 64.8665 20.4898C62.4922 19.9809 59.8633 19.7266 56.9801 19.7266H28.4875V19.7266ZM41.8012 69.9277V53.307H56.3016C59.1848 53.307 61.5028 53.9711 63.2555 55.3C65.0079 56.6285 65.8844 58.8473 65.8844 61.9566C65.8844 63.5398 65.6157 64.8398 65.0786 65.8574C64.5415 66.875 63.8208 67.6809 62.9161 68.2742C62.0118 68.868 60.9657 69.2918 59.7786 69.5465C58.5911 69.8004 57.3477 69.9277 56.0473 69.9277H41.8012V69.9277Z" fill="white"/>
</g>
<defs>
<clipPath id="clip0">
<rect width="100" height="100" fill="white" transform="translate(0.333252)"/>
</clipPath>
</defs>
</svg>
