<svg width="139" height="100" viewBox="0 0 139 100" fill="none" xmlns="http://www.w3.org/2000/svg">
<g clip-path="url(#clip0)">
<path d="M135.522 38.1065C132.406 35.9443 125.265 35.1335 119.682 36.2146C119.034 30.8092 116.047 26.08 110.854 21.8908L107.868 19.7286L105.79 22.8368C103.194 26.8908 101.895 32.5665 102.284 37.9719C102.414 39.8632 103.063 43.2416 105.011 46.2146C103.194 47.2957 99.4282 48.647 94.4947 48.647H0.624422L0.364962 49.7281C-0.544227 55.133 -0.544228 72.0243 10.1023 84.9968C18.152 94.8611 30.0969 99.8611 45.8066 99.8611C79.8228 99.8611 105.011 83.5097 116.826 53.9168C121.5 54.0519 131.497 53.9168 136.561 43.7816C136.691 43.5113 136.95 42.9708 137.859 40.9443L138.378 39.8632L135.522 38.1065ZM75.6682 0H61.3871V13.513H75.6682V0ZM75.6682 16.2157H61.3871V29.7286H75.6682V16.2151V16.2157ZM58.7898 16.2157H44.5088V29.7286H58.7898V16.2151V16.2157ZM41.9115 16.2157H27.6298V29.7286H41.9115V16.2151V16.2157ZM25.0331 32.4314H10.7514V45.9443H25.0325V32.4308L25.0331 32.4314ZM41.9115 32.4314H27.6298V45.9443H41.9115V32.4308V32.4314ZM58.7898 32.4314H44.5088V45.9443H58.7898V32.4308V32.4314ZM75.6687 32.4314H61.3866V45.9443H75.6687V32.4308V32.4314ZM92.5471 32.4314H78.265V45.9443H92.5471V32.4308V32.4314Z" fill="#2396ED"/>
</g>
<defs>
<clipPath id="clip0">
<rect width="138.378" height="100" fill="white"/>
</clipPath>
</defs>
</svg>
