<svg width="507" height="412" viewBox="0 0 507 412" fill="none" xmlns="http://www.w3.org/2000/svg">
<g clip-path="url(#clip0)">
<path d="M260.408 385.271L477.784 246.752C484.705 242.556 490.636 235.682 483.893 231.173L265.744 95.6195C262.474 93.4329 257.505 91.998 254.172 94.0889L26.0217 236.871C19.1012 241.204 17.859 253.271 24.7542 257.644L231.762 385.025C236.105 387.746 241.031 389.201 246.055 389.244C251.078 389.287 256.025 387.918 260.408 385.271V385.271Z" fill="#FFB3A6"/>
<path style="mix-blend-mode:multiply" d="M165.865 296.127L131.313 316.804C131.313 316.804 163.596 344.245 178.084 350.859L212.674 328.652" fill="url(#paint0_linear)"/>
<path style="mix-blend-mode:multiply" d="M164.458 213.461L129.906 234.138C129.906 234.138 138.183 248.255 152.721 254.815L190.062 232.608" fill="url(#paint1_linear)"/>
<path style="mix-blend-mode:multiply" d="M351.351 294.993C351.351 294.993 393.115 269.779 393.369 269.356L328.485 234.138L291.994 256.851L351.351 294.993Z" fill="url(#paint2_linear)"/>
<path d="M399.262 192.033L452.244 227.442C452.73 227.765 453.129 228.22 453.402 228.76C453.675 229.301 453.812 229.909 453.801 230.524C453.789 231.14 453.629 231.741 453.336 232.27C453.043 232.798 452.627 233.235 452.13 233.537L371.72 282.529C370.602 283.224 369.334 283.589 368.044 283.589C366.754 283.589 365.486 283.224 364.368 282.529L311.628 249.102C307.825 245.713 308.864 240.684 311.628 239.044L391.569 191.924C392.74 191.189 394.074 190.811 395.43 190.83C396.785 190.849 398.11 191.265 399.262 192.033V192.033Z" fill="#68E1FD"/>
<path d="M399.262 189.601L452.244 225.009C452.73 225.333 453.129 225.787 453.402 226.328C453.675 226.869 453.812 227.477 453.801 228.092C453.789 228.707 453.629 229.309 453.336 229.837C453.043 230.366 452.627 230.802 452.13 231.104L371.732 280.138C370.614 280.832 369.347 281.198 368.057 281.198C366.766 281.198 365.499 280.832 364.381 280.138L311.64 246.711C311.022 246.324 310.509 245.769 310.152 245.101C309.795 244.433 309.607 243.676 309.607 242.905C309.607 242.134 309.795 241.377 310.152 240.709C310.509 240.041 311.022 239.486 311.64 239.099L391.581 189.546C392.747 188.805 394.076 188.419 395.429 188.429C396.782 188.439 398.106 188.844 399.262 189.601Z" fill="white"/>
<path d="M395.739 191.514L448.986 227.647L369.349 276.776L314.403 241.941L395.739 191.514Z" fill="#606060"/>
<path d="M338.384 261.757C339.427 261.757 340.273 261.329 340.273 260.8C340.273 260.272 339.427 259.844 338.384 259.844C337.341 259.844 336.496 260.272 336.496 260.8C336.496 261.329 337.341 261.757 338.384 261.757Z" fill="#383097"/>
<path style="mix-blend-mode:multiply" d="M397.703 251.398C397.703 251.398 404.637 237.5 404.675 237.431L403.483 236.789L388.755 245.959L397.703 251.398Z" fill="url(#paint3_linear)"/>
<path d="M459.976 200.137C459.958 200.037 459.958 199.935 459.976 199.836C459.253 199.428 458.474 199.147 457.669 199.002L408.236 230.817C408.236 230.817 405.27 233.318 410.771 236.693L460.952 204.537C460.904 203.015 460.572 201.518 459.976 200.137V200.137Z" fill="#CCCCCC"/>
<path d="M408.135 230.804C408.135 230.804 402.381 237.746 402.279 238.197C402.178 238.648 410.607 236.68 410.607 236.68" fill="#CCCCCC"/>
<path d="M460.77 204.548C461.68 203.982 461.739 202.257 460.902 200.695C460.066 199.133 458.65 198.325 457.741 198.891C456.832 199.457 456.773 201.182 457.609 202.745C458.446 204.307 459.861 205.114 460.77 204.548Z" fill="#F2F2F2"/>
<path d="M210.164 186.43L230.926 197.213C231.706 197.619 232.369 198.247 232.844 199.029C233.318 199.81 233.587 200.716 233.621 201.65C233.655 202.584 233.452 203.51 233.036 204.329C232.619 205.148 232.004 205.83 231.255 206.301L182.038 237.254C180.974 237.923 179.712 238.122 178.515 237.812C177.317 237.501 176.277 236.704 175.612 235.587L163.659 215.566" fill="#56403D"/>
<path d="M97.1919 134.581L262.803 31.7171C263.939 31.0084 265.229 30.6351 266.541 30.6348C267.853 30.6344 269.143 31.0071 270.279 31.7153C271.415 32.4234 272.358 33.442 273.013 34.6684C273.668 35.8947 274.011 37.2855 274.008 38.7005V145.705C274.007 146.88 273.72 148.034 273.175 149.051C272.63 150.068 271.846 150.912 270.903 151.5L94.3781 261.361C93.7689 261.74 93.0778 261.94 92.3744 261.939C91.6709 261.939 90.9799 261.739 90.3709 261.36C89.7619 260.98 89.2564 260.434 88.9051 259.777C88.5539 259.12 88.3694 258.375 88.3701 257.616V151.021C88.3744 147.688 89.1918 144.414 90.7402 141.528C92.2886 138.643 94.5136 136.247 97.1919 134.581Z" fill="#68E1FD"/>
<path d="M262.778 39.8073L102.211 139.419C100.496 140.483 99.0712 142.017 98.0809 143.864C97.0906 145.712 96.5697 147.808 96.5706 149.942V230.161C96.5725 230.928 96.7609 231.681 97.117 232.345C97.4731 233.009 97.9845 233.561 98.6001 233.946C99.2157 234.33 99.9141 234.534 100.625 234.536C101.337 234.539 102.037 234.34 102.655 233.96L266.416 132.641C267.027 132.263 267.536 131.718 267.89 131.06C268.244 130.403 268.43 129.656 268.431 128.896V43.3742C268.429 42.6611 268.254 41.961 267.924 41.343C267.594 40.7251 267.12 40.2106 266.549 39.8504C265.978 39.4903 265.33 39.2968 264.669 39.2893C264.007 39.2817 263.356 39.4603 262.778 39.8073V39.8073Z" fill="white"/>
<path d="M199.381 187.559C199.798 185.225 198.604 183.014 196.713 182.622C194.823 182.229 192.953 183.804 192.536 186.138C192.119 188.473 193.313 190.683 195.204 191.076C197.094 191.468 198.964 189.894 199.381 187.559Z" fill="#AB643C"/>
<path d="M270.941 232.689L314.264 259.379C314.717 259.661 315.092 260.066 315.354 260.555C315.615 261.043 315.753 261.597 315.753 262.16C315.753 262.724 315.615 263.278 315.354 263.766C315.092 264.254 314.717 264.659 314.264 264.941L193.927 339.585C192.468 340.492 190.814 340.969 189.13 340.969C187.446 340.969 185.791 340.492 184.332 339.585L143.772 314.344C143.301 314.05 142.91 313.627 142.639 313.119C142.367 312.61 142.224 312.034 142.224 311.447C142.224 310.86 142.367 310.283 142.639 309.775C142.91 309.266 143.301 308.844 143.772 308.55L265.528 232.717C266.348 232.198 267.281 231.922 268.231 231.917C269.182 231.912 270.117 232.179 270.941 232.689V232.689Z" fill="#974C26"/>
<path d="M205.475 275.245L217.845 283.144L208.669 288.897C206.134 287.271 198.655 282.543 196.26 281.026L205.475 275.245Z" fill="white"/>
<path d="M219.024 266.759L231.395 274.658L219.772 281.942C217.744 280.671 210.253 275.901 207.363 274.07L219.024 266.759Z" fill="white"/>
<path d="M268.254 235.942L280.814 243.718L269.635 250.715C267.861 249.608 260.281 244.784 257.226 242.843L268.254 235.942Z" fill="white"/>
<path d="M241.788 252.464L254.159 260.363L244.982 266.103C242.815 264.736 235.349 259.994 232.573 258.231L241.788 252.464Z" fill="white"/>
<path d="M255.338 244.019L267.708 251.918L256.035 259.202C254.666 258.355 246.883 253.408 243.626 251.33L255.338 244.019Z" fill="white"/>
<path d="M194.371 282.202L206.742 290.101L197.958 295.567C195.322 293.9 187.894 289.185 185.549 287.695L194.371 282.202Z" fill="white"/>
<path d="M230.685 259.461L243.056 267.36L233.334 273.441C231.053 272.075 223.612 267.278 220.925 265.57L230.685 259.461Z" fill="white"/>
<path d="M183.661 288.911L196.032 296.81L184.409 304.094C181.975 302.563 174.56 297.849 172 296.222L183.661 288.911Z" fill="white"/>
<path d="M170.098 297.398L182.469 305.297L161.619 318.348L149.045 310.572L170.098 297.398Z" fill="white"/>
<path d="M282.424 246.027L294.985 253.803L278.748 263.971C276.619 262.604 269.153 257.889 266.34 256.099L282.424 246.027Z" fill="white"/>
<path d="M250.889 265.761L263.26 273.66L254.083 279.414C251.624 277.869 244.209 273.155 241.674 271.542L250.889 265.761Z" fill="white"/>
<path d="M228.15 280.015L240.521 287.914L228.898 295.198C226.565 293.736 219.138 289.007 216.489 287.326L228.15 280.015Z" fill="white"/>
<path d="M239.786 272.717L252.156 280.616L242.435 286.698C239.9 285.099 232.459 280.37 230.026 278.826L239.786 272.717Z" fill="white"/>
<path d="M214.575 288.501L226.946 296.4L217.769 302.154C214.93 300.364 207.464 295.608 205.36 294.282L214.575 288.501Z" fill="white"/>
<path d="M203.472 295.458L215.843 303.356L207.059 308.823C204.169 307.005 196.691 302.236 194.65 300.951L203.472 295.458Z" fill="white"/>
<path d="M264.439 257.275L276.809 265.174L265.186 272.444C263.349 271.296 255.782 266.486 252.778 264.573L264.439 257.275Z" fill="white"/>
<path d="M192.761 302.167L205.132 310.066L193.509 317.35C190.822 315.656 183.369 310.927 181.1 309.479L192.761 302.167Z" fill="white"/>
<path d="M191.57 318.553L175.777 328.434L163.216 320.658L179.199 310.641L191.57 318.553Z" fill="white"/>
<path d="M200.823 317.2L210.025 323.09L199.352 329.746L190.011 323.965L200.823 317.2Z" fill="white"/>
<path d="M197.147 331.126L188.071 336.797L178.717 331.03L187.957 325.25L197.147 331.126Z" fill="white"/>
<path d="M297.913 256.4L307.546 262.153L296.62 268.986L287.165 263.124L297.913 256.4Z" fill="white"/>
<path d="M285.124 264.408L294.415 270.353L282.754 277.651L273.311 271.801L285.124 264.408Z" fill="white"/>
<path d="M271.258 273.086L280.536 279.031L212.243 321.696L202.876 315.902L271.258 273.086Z" fill="white"/>
<path style="mix-blend-mode:multiply" d="M301.741 147.236L283.996 158.538C283.996 158.538 289.472 168.896 303.009 175.019L323.618 163.075" fill="url(#paint4_linear)"/>
<path d="M316.127 164.004C325.192 164.004 332.541 158.424 332.541 151.541C332.541 144.658 325.192 139.078 316.127 139.078C307.062 139.078 299.713 144.658 299.713 151.541C299.713 158.424 307.062 164.004 316.127 164.004Z" fill="#68E1FD"/>
<path d="M316.14 149.6C322.93 149.6 328.434 147.171 328.434 144.175C328.434 141.179 322.93 138.75 316.14 138.75C309.35 138.75 303.845 141.179 303.845 144.175C303.845 147.171 309.35 149.6 316.14 149.6Z" fill="#974C26"/>
<path d="M316.951 144.298C317.914 142.836 318.89 141.305 319.904 139.583C321.172 137.383 322.439 135.142 323.542 132.818C324.579 130.765 325.465 128.626 326.191 126.423C326.999 124.029 327.647 121.577 328.13 119.084C328.257 118.428 328.358 117.717 328.472 117.116C328.472 116.815 328.472 116.843 328.472 116.884C328.472 116.925 328.472 116.679 328.472 116.31C328.587 114.943 328.663 113.577 328.675 112.292C328.732 107.644 327.899 103.034 326.229 98.749C321.791 105.688 318.799 113.581 317.458 121.886C317.373 122.378 317.293 122.874 317.217 123.375C317.217 123.375 317.09 124.277 317.04 124.646L316.913 125.89C316.854 126.518 316.799 127.152 316.748 127.789C316.571 130.236 316.482 132.682 316.495 135.128C316.596 138.189 316.723 141.25 316.951 144.298ZM322.173 107.728C322.469 107.363 322.777 107.008 323.098 106.662C323.033 106.977 323.033 107.303 323.098 107.618C322.791 107.601 322.482 107.638 322.186 107.728H322.173Z" fill="#999A1C"/>
<path d="M317.268 144.503C317.357 142.712 317.395 140.854 317.382 138.818C317.382 136.207 317.268 133.611 317.053 131.014C316.896 128.681 316.57 126.364 316.077 124.086C315.559 121.599 314.877 119.156 314.036 116.774C313.808 116.146 313.58 115.531 313.326 114.916C313.212 114.629 313.237 114.656 313.263 114.697L313.009 114.191C312.426 113.003 311.83 111.827 311.171 110.693C308.882 106.745 305.862 103.348 302.299 100.717C302.042 109.149 303.481 117.541 306.52 125.316C306.697 125.78 306.879 126.236 307.065 126.682L307.559 127.857L308.079 128.992C308.341 129.557 308.611 130.121 308.89 130.686C309.967 132.846 311.121 134.95 312.35 137.014C313.896 139.597 315.544 142.084 317.268 144.503ZM303.326 110.693C303.393 110.21 303.473 109.755 303.566 109.326C303.652 109.635 303.799 109.919 303.997 110.16C303.749 110.305 303.523 110.489 303.326 110.707V110.693Z" fill="#999A1C"/>
<path d="M317.344 145.459C316.849 144.462 316.317 143.45 315.709 142.344C314.923 140.977 314.086 139.61 313.174 138.244C312.379 137.041 311.497 135.908 310.537 134.855C309.512 133.692 308.411 132.609 307.242 131.616L306.355 130.837C306.202 130.727 306.228 130.727 306.253 130.741L305.962 130.55C305.29 130.112 304.618 129.689 303.921 129.306C301.51 127.97 298.869 127.184 296.164 126.997C298.548 131.631 301.834 135.654 305.797 138.79L306.507 139.351L307.115 139.815L307.736 140.239L308.687 140.868C309.912 141.66 311.179 142.398 312.489 143.081C314.048 143.97 315.683 144.749 317.344 145.459ZM299.7 132.067C299.59 131.784 299.489 131.497 299.396 131.206C299.534 131.343 299.698 131.446 299.878 131.506C299.792 131.682 299.732 131.871 299.7 132.067V132.067Z" fill="#999A1C"/>
<path d="M316.951 144.298C317.914 142.836 318.89 141.305 319.904 139.583C321.172 137.383 322.439 135.142 323.542 132.818C324.579 130.765 325.465 128.626 326.191 126.423C326.999 124.029 327.647 121.577 328.13 119.084C328.257 118.428 328.358 117.717 328.472 117.116C328.472 116.815 328.472 116.843 328.472 116.884C328.472 116.925 328.472 116.679 328.472 116.31C328.587 114.943 328.663 113.577 328.675 112.292C328.732 107.644 327.899 103.034 326.229 98.749C321.791 105.688 318.799 113.581 317.458 121.886C317.373 122.378 317.293 122.874 317.217 123.375C317.217 123.375 317.09 124.277 317.04 124.646L316.913 125.89C316.854 126.518 316.799 127.152 316.748 127.789C316.571 130.236 316.482 132.682 316.495 135.128C316.596 138.189 316.723 141.25 316.951 144.298ZM322.173 107.728C322.469 107.363 322.777 107.008 323.098 106.662C323.033 106.977 323.033 107.303 323.098 107.618C322.791 107.601 322.482 107.638 322.186 107.728H322.173Z" fill="#999A1C"/>
<path d="M317.268 144.503C317.357 142.712 317.395 140.854 317.382 138.818C317.382 136.207 317.268 133.611 317.053 131.014C316.896 128.681 316.57 126.364 316.077 124.086C315.559 121.599 314.877 119.156 314.036 116.774C313.808 116.146 313.58 115.531 313.326 114.916C313.212 114.629 313.237 114.656 313.263 114.697L313.009 114.191C312.426 113.003 311.83 111.827 311.171 110.693C308.882 106.745 305.862 103.348 302.299 100.717C302.042 109.149 303.481 117.541 306.52 125.316C306.697 125.78 306.879 126.236 307.065 126.682L307.559 127.857L308.079 128.992C308.341 129.557 308.611 130.121 308.89 130.686C309.967 132.846 311.121 134.95 312.35 137.014C313.896 139.597 315.544 142.084 317.268 144.503ZM303.326 110.693C303.393 110.21 303.473 109.755 303.566 109.326C303.652 109.635 303.799 109.919 303.997 110.16C303.749 110.305 303.523 110.489 303.326 110.707V110.693Z" fill="#999A1C"/>
<path d="M317.344 145.459C316.849 144.462 316.317 143.45 315.709 142.344C314.923 140.977 314.086 139.61 313.174 138.244C312.379 137.041 311.497 135.908 310.537 134.855C309.512 133.692 308.411 132.609 307.242 131.616L306.355 130.837C306.202 130.727 306.228 130.727 306.253 130.741L305.962 130.55C305.29 130.112 304.618 129.689 303.921 129.306C301.51 127.97 298.869 127.184 296.164 126.997C298.548 131.631 301.834 135.654 305.797 138.79L306.507 139.351L307.115 139.815L307.736 140.239L308.687 140.868C309.912 141.66 311.179 142.398 312.489 143.081C314.048 143.97 315.683 144.749 317.344 145.459ZM299.7 132.067C299.59 131.784 299.489 131.497 299.396 131.206C299.534 131.343 299.698 131.446 299.878 131.506C299.792 131.682 299.732 131.871 299.7 132.067V132.067Z" fill="#999A1C"/>
<path d="M131.465 198.866L190.011 165.289L154.876 129.115L131.465 198.866Z" fill="#E88831"/>
<path d="M235.628 119.521C247.935 119.521 257.911 108.765 257.911 95.496C257.911 82.2275 247.935 71.4712 235.628 71.4712C223.322 71.4712 213.346 82.2275 213.346 95.496C213.346 108.765 223.322 119.521 235.628 119.521Z" fill="#7ACC92"/>
<path d="M119.145 151.65C115.596 149.464 112.402 155.367 115.951 157.554C126.966 164.387 118.144 179.255 109.943 183.519C106.267 185.419 109.474 191.323 113.137 189.423C125.939 182.768 134.355 160.902 119.145 151.65Z" fill="#56403D"/>
<path d="M220.545 134.936C217.174 117.949 195.968 128.377 199.657 143.778C201.254 150.447 207.997 154.328 213.827 151.021C216.376 149.445 218.398 147.041 219.605 144.153C220.811 141.264 221.14 138.039 220.545 134.936V134.936ZM214.436 139.2C214.301 140.462 213.875 141.666 213.194 142.703C212.514 143.739 211.603 144.575 210.545 145.131C205.703 147.126 205.817 140.498 207.008 137.328C209.138 131.451 215.475 132.203 214.41 139.255L214.436 139.2Z" fill="#56403D"/>
<path d="M210.735 353.224C210.864 352.34 211.193 351.504 211.693 350.789C212.192 350.074 212.847 349.503 213.599 349.124L222.789 343.412L236.985 334.543L253.944 323.951L271.993 312.691L289.446 301.758L304.656 292.287L315.874 285.29L321.768 281.614C321.768 281.751 321.97 281.751 322.097 281.71C322.797 281.526 323.529 281.539 324.223 281.749C324.916 281.958 325.548 282.357 326.058 282.906C326.567 283.455 326.937 284.137 327.131 284.884C327.325 285.632 327.338 286.422 327.167 287.176C326.483 290.046 324.214 292.574 322.097 294.324C315.234 299.636 308.072 304.483 300.651 308.837V305.981C305.645 303.029 316.419 296.414 320.931 291.358L318.776 292.725L312.844 296.469L303.909 302.1L292.755 309.124L280.118 317.146L266.86 325.496L253.728 333.764L241.51 341.471L231.027 348.127L222.953 353.21C220.494 354.768 217.82 356.873 214.955 357.474C214.415 357.516 213.872 357.436 213.361 357.241C212.85 357.046 212.382 356.74 211.986 356.341C211.59 355.942 211.274 355.459 211.059 354.923C210.844 354.387 210.733 353.808 210.735 353.224V353.224Z" fill="#68E1FD"/>
<path style="mix-blend-mode:multiply" d="M282.576 207.503L263.64 219.666C263.64 219.666 276.074 232.512 290.561 239.085L308.167 226.69" fill="url(#paint5_linear)"/>
<path d="M280.764 198.825V208.378L308.129 226.649L340.983 205.002V196.857" fill="#E54C3C"/>
<path d="M340.983 196.857L313.085 178.859L280.764 198.825L308.662 217.096L340.983 196.857Z" fill="#F5604B"/>
<path d="M375.575 334.062C376.677 335.999 377.805 338.046 377.841 340.491C377.869 345.428 373.612 349.793 369.801 353.226C368.887 354.048 367.918 354.906 366.831 355.187C365.85 355.369 364.889 355.266 364.045 354.889C354.877 351.634 349.923 341.517 347.137 331.277C346.15 327.642 345.349 323.857 345.521 319.851C345.776 313.849 348.192 307.81 350.57 301.954C350.235 309.22 351.23 316.223 353.494 322.547C355.758 328.871 359.246 334.386 363.751 338.767C364.49 339.449 366.636 328.129 366.982 327.642C370.161 323.157 374.243 331.714 375.575 334.062Z" fill="url(#paint6_linear)"/>
<path d="M368.979 325.005C368.807 324.602 368.528 324.278 368.175 324.067C367.753 323.922 367.271 323.965 366.822 324.188C363.948 325.389 362.403 329.194 362.2 332.43C361.998 335.666 362.69 338.797 362.352 342.027C358.262 340.33 356.376 335.48 354.796 330.98C351.919 322.781 349.026 313.824 351.43 304.532C351.728 303.404 352.091 302.126 351.591 301.232C350.75 299.713 348.35 300.709 347.069 302.231C345.16 304.492 344.27 307.49 342.599 309.937C341.181 312.009 339.264 313.62 337.734 315.588C336.425 317.385 335.28 319.308 334.321 321.32C331.925 325.971 329.47 330.779 328.806 335.802C328.356 339.241 328.773 342.592 329.322 345.836C330.148 350.748 331.287 355.611 333.546 359.715C337.67 367.214 345.326 371.846 347.994 380.292C348.941 383.286 349.464 386.989 352.113 388.158C354.208 389.085 356.859 387.974 359.106 386.617C363.778 383.788 367.945 379.861 371.263 375.163C371.884 374.332 372.389 373.413 372.757 372.444C373.061 371.41 373.225 370.356 373.244 369.318C374.293 353.579 376.717 337.849 368.979 325.005Z" fill="#F3A984"/>
<path d="M399.928 295.366C399.538 295.249 399.204 295.008 398.963 294.67C398.771 294.248 398.741 293.734 398.88 293.224C399.559 289.997 402.79 287.748 405.697 287.008C408.604 286.268 411.543 286.488 414.425 285.607C412.302 281.568 407.632 280.369 403.325 279.436C395.476 277.736 386.937 276.142 378.851 280.19C377.87 280.687 376.761 281.279 375.88 280.896C374.381 280.256 374.943 277.563 376.14 275.964C377.919 273.584 380.512 272.156 382.494 269.997C384.17 268.164 385.358 265.88 386.926 263.946C388.369 262.273 389.95 260.752 391.638 259.413C395.515 256.13 399.527 252.759 403.99 251.24C407.045 250.207 410.145 250.101 413.166 250.152C417.741 250.224 422.314 250.634 426.36 252.348C433.752 255.477 439.047 262.798 447.09 264.237C449.942 264.748 453.376 264.697 454.814 267.3C455.955 269.359 455.325 272.335 454.414 274.926C452.515 280.313 449.548 285.348 445.759 289.612C445.094 290.402 444.332 291.084 443.505 291.63C442.61 292.119 441.678 292.463 440.739 292.652C426.61 296.32 412.686 301.435 399.928 295.366Z" fill="#F3A984"/>
<path d="M348.693 408.136C354.633 404.164 360.62 400.158 366.021 395.167C371.421 390.175 376.266 384.073 379.037 377.143C379.61 375.714 380.079 374.011 379.391 372.939C378.904 372.179 377.97 371.965 377.092 371.792L372.932 370.979C372.453 370.797 371.901 370.806 371.356 371.004C370.812 371.203 370.303 371.582 369.904 372.084C366.616 375.209 363.428 378.597 359.72 380.94C353.561 384.87 348.635 380.937 346.593 389.634C346.16 391.554 347.339 409.039 348.693 408.136Z" fill="#68E1FD"/>
<path d="M473.15 261.092C470.407 268.278 467.64 275.519 463.824 282.251C460.008 288.982 455.029 295.253 448.886 299.336C447.62 300.18 446.073 300.946 444.924 300.335C444.108 299.902 443.736 298.893 443.414 297.94L441.892 293.426C441.632 292.919 441.542 292.303 441.635 291.668C441.729 291.033 442 290.412 442.41 289.895C444.816 285.784 447.491 281.749 449.073 277.283C451.736 269.86 447.09 264.942 455.055 261.417C456.816 260.659 473.773 259.455 473.15 261.092Z" fill="#68E1FD"/>
</g>
<defs>
<linearGradient id="paint0_linear" x1="206.514" y1="292.41" x2="154.877" y2="331.388" gradientUnits="userSpaceOnUse">
<stop stop-color="#D4A397"/>
<stop offset="1" stop-color="white"/>
</linearGradient>
<linearGradient id="paint1_linear" x1="9109.93" y1="6468.16" x2="7749.22" y2="8079.28" gradientUnits="userSpaceOnUse">
<stop stop-color="#D4A397"/>
<stop offset="1" stop-color="white"/>
</linearGradient>
<linearGradient id="paint2_linear" x1="357.27" y1="239.933" x2="329.897" y2="277.333" gradientUnits="userSpaceOnUse">
<stop offset="0.01" stop-color="#4D4D4D"/>
<stop offset="1" stop-color="white"/>
</linearGradient>
<linearGradient id="paint3_linear" x1="5439.14" y1="2733.76" x2="5349.13" y2="2878.28" gradientUnits="userSpaceOnUse">
<stop offset="0.01" stop-color="#4D4D4D"/>
<stop offset="1" stop-color="white"/>
</linearGradient>
<linearGradient id="paint4_linear" x1="313.757" y1="149.122" x2="294.533" y2="168.657" gradientUnits="userSpaceOnUse">
<stop stop-color="#78B46A"/>
<stop offset="0.03" stop-color="#7F3500"/>
<stop offset="1" stop-color="white"/>
</linearGradient>
<linearGradient id="paint5_linear" x1="10963.1" y1="4961.56" x2="10297.7" y2="5725.47" gradientUnits="userSpaceOnUse">
<stop stop-color="#D4A397"/>
<stop offset="1" stop-color="white"/>
</linearGradient>
<linearGradient id="paint6_linear" x1="18903.6" y1="8238.55" x2="19076" y2="-1877.36" gradientUnits="userSpaceOnUse">
<stop stop-color="#010101" stop-opacity="0"/>
<stop offset="0.95" stop-color="#010101"/>
</linearGradient>
<clipPath id="clip0">
<rect width="507" height="412" fill="white"/>
</clipPath>
</defs>
</svg>
