<svg width="101" height="100" viewBox="0 0 101 100" fill="none" xmlns="http://www.w3.org/2000/svg">
<g clip-path="url(#clip0)">
<path d="M0.280762 0H100.281V100H0.280762V0Z" fill="#F7DF1E"/>
<path d="M26.5744 83.5671L34.2267 78.9359C35.7033 81.5534 37.0462 83.7683 40.2677 83.7683C43.3556 83.7683 45.3029 82.5605 45.3029 77.862V45.9097H54.7001V77.9948C54.7001 87.7281 48.9947 92.1585 40.6705 92.1585C33.1529 92.1585 28.7892 88.2652 26.574 83.5663" fill="black"/>
<path d="M59.8046 82.56L67.4562 78.1299C69.4706 81.4193 72.0886 83.8357 76.7198 83.8357C80.614 83.8357 83.0968 81.8889 83.0968 79.2037C83.0968 75.9818 80.546 74.8404 76.2499 72.9615L73.9011 71.9537C67.121 69.0682 62.6237 65.4432 62.6237 57.7908C62.6237 50.7424 67.9937 45.3721 76.3847 45.3721C82.3589 45.3721 86.655 47.4533 89.7425 52.8904L82.4253 57.5896C80.814 54.7033 79.0694 53.5623 76.3843 53.5623C73.6319 53.5623 71.8866 55.3076 71.8866 57.5896C71.8866 60.4088 73.6319 61.5506 77.6593 63.2959L80.0085 64.3025C87.9968 67.7264 92.494 71.2166 92.494 79.0697C92.494 87.5283 85.8487 92.1596 76.921 92.1596C68.1948 92.1596 62.5562 87.9978 59.8042 82.5603" fill="black"/>
</g>
<defs>
<clipPath id="clip0">
<rect width="100" height="100" fill="white" transform="translate(0.280762)"/>
</clipPath>
</defs>
</svg>
