<svg width="167" height="100" viewBox="0 0 167 100" fill="none" xmlns="http://www.w3.org/2000/svg">
<path fill-rule="evenodd" clip-rule="evenodd" d="M84.2873 55.0312L82.8224 54.5306C82.8224 54.5306 83.0013 47.0624 80.3208 46.5265C78.5346 44.4536 80.6074 -41.3802 87.0393 46.2403C87.0393 46.2403 84.8236 47.3478 84.4305 49.2421C84.0015 51.1005 84.2873 55.0312 84.2873 55.0312Z" fill="white"/>
<path fill-rule="evenodd" clip-rule="evenodd" d="M84.2873 55.0312L82.8224 54.5306C82.8224 54.5306 83.0013 47.0624 80.3208 46.5265C78.5346 44.4536 80.6074 -41.3802 87.0393 46.2403C87.0393 46.2403 84.8236 47.3478 84.4305 49.2421C84.0015 51.1005 84.2873 55.0312 84.2873 55.0312Z" fill="#A6A385"/>
<path fill-rule="evenodd" clip-rule="evenodd" d="M85.0736 47.8125C85.0736 47.8125 97.9026 39.379 94.9004 21.8331C92.0062 9.07651 85.1809 4.89556 84.4304 3.28739C83.6087 2.14389 82.8223 0.143066 82.8223 0.143066L83.3586 35.6267C83.3586 35.6627 82.2507 46.4901 85.074 47.8129" fill="white"/>
<path fill-rule="evenodd" clip-rule="evenodd" d="M85.0736 47.8125C85.0736 47.8125 97.9026 39.379 94.9004 21.8331C92.0062 9.07651 85.1809 4.89556 84.4304 3.28739C83.6087 2.14389 82.8223 0.143066 82.8223 0.143066L83.3586 35.6267C83.3586 35.6627 82.2507 46.4901 85.074 47.8129" fill="#499D4A"/>
<path fill-rule="evenodd" clip-rule="evenodd" d="M82.0723 48.277C82.0723 48.277 70.0294 40.058 70.7442 25.586C71.423 11.1136 79.9278 4.00243 81.5716 2.71604C82.6439 1.57255 82.6795 1.1435 82.7511 0C83.5016 1.60817 83.3587 24.0494 83.4656 26.6934C83.787 36.8776 82.894 46.3478 82.0723 48.277Z" fill="white"/>
<path fill-rule="evenodd" clip-rule="evenodd" d="M82.0723 48.277C82.0723 48.277 70.0294 40.058 70.7442 25.586C71.423 11.1136 79.9278 4.00243 81.5716 2.71604C82.6439 1.57255 82.6795 1.1435 82.7511 0C83.5016 1.60817 83.3587 24.0494 83.4656 26.6934C83.787 36.8776 82.894 46.3478 82.0723 48.277Z" fill="#58AA50"/>
<path fill-rule="evenodd" clip-rule="evenodd" d="M152.59 66.9099C152.411 66.9456 152.232 67.3386 152.232 67.5527C152.197 68.9824 152.161 72.7703 152.161 75.3431C152.161 75.4147 152.268 75.5576 152.375 75.5576C152.911 75.5932 154.198 75.6288 155.306 75.6288C156.842 75.6288 157.735 75.4147 158.236 75.2006C159.522 74.557 160.13 73.1633 160.13 71.6264C160.13 68.1607 157.7 66.8383 154.09 66.8383C153.84 66.8027 153.126 66.8027 152.59 66.9099ZM161.809 82.8832C161.809 79.3455 159.201 77.3799 154.484 77.3799C154.269 77.3799 152.768 77.3443 152.411 77.4155C152.304 77.4515 152.161 77.5232 152.161 77.6304C152.161 80.1672 152.125 84.2056 152.232 85.7778C152.304 86.4566 152.804 87.4216 153.412 87.7074C154.055 88.0648 155.52 88.136 156.521 88.136C159.344 88.136 161.809 86.5639 161.809 82.8832ZM145.3 64.9447C145.657 64.9447 146.729 65.0516 149.481 65.0516C152.09 65.0516 154.162 64.9803 156.699 64.9803C159.808 64.9803 164.096 66.0878 164.096 70.7335C164.096 73.0204 162.488 74.8431 160.38 75.7365C160.273 75.7721 160.273 75.8434 160.38 75.879C163.381 76.6298 166.026 78.4878 166.026 81.9895C166.026 85.4204 163.882 87.6001 160.773 88.9581C158.879 89.7798 156.521 90.0656 154.126 90.0656C152.304 90.0656 147.408 89.8515 144.693 89.9231C144.407 89.8155 144.943 88.5291 145.193 88.3149C145.836 88.2789 146.336 88.2433 147.015 88.0288C147.98 87.779 148.087 87.4928 148.23 86.0279C148.302 84.7772 148.302 80.3457 148.302 77.2014C148.302 72.8776 148.338 69.9474 148.302 68.5181C148.266 67.4106 147.873 67.0528 147.087 66.8383C146.479 66.7314 145.479 66.5881 144.657 66.4813C144.478 66.3024 145.085 65.0872 145.3 64.9447ZM124.681 87.1714C125.539 87.8499 127.218 88.1357 128.719 88.1357C130.649 88.1357 132.579 87.779 134.437 86.0988C136.331 84.3841 137.653 81.7397 137.653 77.5232C137.653 73.4847 136.116 70.1971 132.972 68.2679C131.185 67.1597 128.898 66.6958 126.253 66.6958C125.467 66.6958 124.717 66.7314 124.253 66.9455C124.145 67.0172 123.895 67.3386 123.895 67.5171C123.824 68.2319 123.824 73.7349 123.824 76.9512C123.824 80.2745 123.824 84.9201 123.895 85.456C123.895 85.9923 124.145 86.814 124.681 87.1714H124.681ZM116.569 64.9443C117.248 64.9443 119.857 65.0516 121.108 65.0516C123.359 65.0516 124.967 64.9447 129.219 64.9447C132.793 64.9447 135.794 65.9093 137.939 67.7316C140.547 69.983 141.905 73.0921 141.905 76.8796C141.905 82.2757 139.439 85.3848 136.974 87.1714C134.508 88.9938 131.292 90.0656 126.718 90.0656C124.288 90.0656 120.107 89.9944 116.641 89.9584H116.605C116.427 89.6369 116.891 88.3862 117.177 88.3506C118.106 88.2433 118.356 88.2073 118.821 88.0292C119.571 87.743 119.714 87.35 119.822 86.0279C119.928 83.5621 119.893 80.5962 119.893 77.237C119.893 74.8431 119.928 70.1615 119.857 68.6606C119.75 67.4102 119.214 67.0884 118.142 66.8739C117.606 66.767 116.891 66.6238 115.891 66.5169C115.747 66.2663 116.391 65.1589 116.569 64.9447V64.9443Z" fill="#58AA50"/>
<path fill-rule="evenodd" clip-rule="evenodd" d="M73.3309 88.5646C72.4375 88.4573 71.7943 88.3148 71.0083 87.9574C70.901 87.8858 70.7221 87.5287 70.7221 87.3855C70.6508 86.1347 70.6508 82.5613 70.6508 80.1675C70.6508 78.2375 70.3294 76.5581 69.5074 75.379C68.5424 74.0206 67.1491 73.2349 65.362 73.2349C63.7899 73.2349 61.6814 74.3067 59.9303 75.8076C59.8947 75.8433 59.6089 76.0938 59.6446 75.7004C59.6446 75.3073 59.7162 74.5212 59.7518 73.9849C59.7878 73.4846 59.5017 73.2349 59.5017 73.2349C58.3582 73.8064 55.1422 74.5569 53.9627 74.6637C53.1054 74.843 52.8908 75.6647 53.7846 75.9505H53.8202C54.7844 76.2363 55.428 76.5581 55.9279 76.8799C56.2853 77.1657 56.2497 77.5587 56.2497 77.8805C56.2853 80.5601 56.2853 84.6698 56.1784 86.9212C56.1428 87.8145 55.8927 88.1359 55.2491 88.2788L55.3207 88.2432C54.8204 88.3504 54.4274 88.4573 53.8198 88.529C53.6053 88.7435 53.6053 89.887 53.8198 90.1371C54.2129 90.1371 56.2853 90.0299 58.0011 90.0299C60.3594 90.0299 61.5745 90.1371 62.1817 90.1371C62.4319 89.8514 62.5035 88.7791 62.3606 88.529C61.6814 88.4933 61.1811 88.4221 60.7168 88.2788C60.0736 88.1355 59.8947 87.8145 59.8587 87.0641C59.7878 85.1697 59.7878 81.1677 59.7878 78.452C59.7878 77.7016 60.002 77.3442 60.2161 77.1296C61.0382 76.4152 62.3606 75.9149 63.5397 75.9149C64.6832 75.9149 65.4333 76.2723 66.0052 76.737C66.7913 77.3798 67.0415 78.3091 67.1487 78.988C67.3272 80.5245 67.256 83.5619 67.256 86.2063C67.256 87.6356 67.1487 87.993 66.6132 88.1715C66.3626 88.2788 65.7195 88.4221 64.969 88.4929C64.7188 88.7435 64.7905 89.8514 64.969 90.1015C66.0052 90.1015 67.2204 89.9942 69.007 89.9942C71.2224 89.9942 72.6521 90.1015 73.224 90.1015C73.4021 89.887 73.4738 88.8508 73.3309 88.5646ZM83.2293 74.9147C81.3357 74.9147 80.1562 76.3796 80.1562 78.6662C80.1562 80.9892 81.1925 83.6692 84.1227 83.6692C84.623 83.6692 85.5523 83.4547 85.9806 82.9544C86.6598 82.3116 87.1245 81.0248 87.1245 79.6668C87.1245 76.701 85.6592 74.9143 83.2293 74.9143V74.9147ZM82.9792 90.7087C82.2647 90.7087 81.764 90.9232 81.4426 91.1021C79.9417 92.0663 79.2629 92.9957 79.2629 94.1039C79.2629 95.1398 79.6559 95.9615 80.5136 96.6763C81.5499 97.5697 82.9792 97.9987 84.8015 97.9987C88.4465 97.9987 90.0547 96.0331 90.0547 94.1039C90.0547 92.7455 89.3755 91.8522 87.9822 91.3523C86.9816 90.9232 85.1593 90.7087 82.9792 90.7087ZM83.2293 99.9999C81.0496 99.9999 79.477 99.5352 78.1194 98.499C76.797 97.4984 76.2254 95.9975 76.2254 94.9613C76.2254 94.6755 76.2971 93.889 76.9403 93.1746C77.3329 92.7455 78.191 91.9238 80.2279 90.5302C80.2991 90.4946 80.3347 90.4589 80.3347 90.3869C80.3347 90.3157 80.2631 90.244 80.1919 90.2088C78.5124 89.5656 78.0121 88.529 77.8689 87.9574V87.8858C77.8336 87.6712 77.762 87.4571 78.0838 87.2426C78.3339 87.0641 78.6913 86.8495 79.084 86.5998C79.6916 86.242 80.3348 85.8489 80.7278 85.5271C80.7994 85.4559 80.7994 85.3846 80.7994 85.313C80.7994 85.2414 80.7278 85.1697 80.6562 85.1345C78.1554 84.3124 76.9046 82.4541 76.9046 79.6668C76.9046 77.8445 77.7263 76.2007 79.1912 75.1644C80.1919 74.3784 82.6934 73.4134 84.3372 73.4134H84.4444C86.1239 73.449 87.0528 73.8064 88.3748 74.2711C89.0897 74.5212 89.7689 74.6281 90.6982 74.6281C92.0915 74.6281 92.6991 74.1995 93.199 73.6995C93.235 73.7708 93.3066 73.9497 93.3423 74.414C93.3779 74.8787 93.235 75.5575 92.8776 76.0578C92.5918 76.4508 91.9486 76.737 91.3054 76.737H91.1265C90.4833 76.6654 90.1972 76.5937 90.1972 76.5937L90.0547 76.6653C90.019 76.737 90.0547 76.8082 90.0903 76.9155L90.1263 76.9871C90.1975 77.3085 90.3404 78.2731 90.3404 78.5237C90.3404 81.4539 89.1613 82.7399 87.9106 83.7048C86.6954 84.5982 85.3022 85.1697 83.7296 85.313C83.694 85.313 83.5515 85.313 83.2293 85.3486C83.0508 85.3486 82.8006 85.3846 82.7646 85.3846H82.729C82.4432 85.4559 81.7288 85.8133 81.7288 86.4205C81.7288 86.9564 82.0502 87.6 83.5867 87.7073C83.9081 87.7429 84.2295 87.7429 84.5873 87.7789C86.6242 87.9214 89.1613 88.1003 90.3404 88.4933C91.9842 89.1005 93.0205 90.5658 93.0205 92.3169C93.0205 94.9617 91.1269 97.4272 87.9822 98.9633C86.4456 99.6425 84.9087 99.9999 83.2293 99.9999ZM103.598 75.0932C102.848 75.0932 102.168 75.2713 101.668 75.6287C100.275 76.4864 99.56 78.2019 99.56 80.703C99.56 85.3846 101.918 88.6722 105.278 88.6722C106.278 88.6722 107.064 88.3861 107.743 87.8145C108.779 86.9564 109.316 85.2414 109.316 82.8471C109.316 78.2019 106.993 75.0928 103.598 75.0928L103.598 75.0932ZM104.241 90.3873C98.1664 90.3873 95.9867 85.9206 95.9867 81.7396C95.9867 78.8095 97.1658 76.5581 99.524 74.9499C101.204 73.9137 103.205 73.3421 104.992 73.3421C109.637 73.3421 112.889 76.6654 112.889 81.4539C112.889 84.7054 111.603 87.2782 109.137 88.8508C107.958 89.6368 105.921 90.3873 104.241 90.3873H104.241ZM40.5625 75.0928C39.8121 75.0928 39.1333 75.2713 38.6326 75.6287C37.2393 76.4864 36.5245 78.2019 36.5245 80.703C36.5245 85.3846 38.8827 88.6722 42.242 88.6722C43.2426 88.6722 44.0286 88.3861 44.7079 87.8145C45.7437 86.9564 46.28 85.2414 46.28 82.8471C46.28 78.2019 43.993 75.0928 40.5625 75.0928ZM41.2057 90.3873C35.1308 90.3873 32.9511 85.9206 32.9511 81.7396C32.9511 78.8095 34.1302 76.5581 36.4885 74.9499C38.1683 73.9137 40.1695 73.3421 41.9562 73.3421C46.6018 73.3421 49.8534 76.6654 49.8534 81.4539C49.8534 84.7054 48.567 87.2782 46.1011 88.8508C44.9576 89.6368 42.9208 90.3873 41.2057 90.3873ZM0.361275 90.0299C0.289637 89.923 0.217999 89.6012 0.254012 89.2082C0.254012 88.922 0.32565 88.7435 0.361275 88.6722C1.11173 88.5646 1.50477 88.4573 1.93344 88.3504C2.64827 88.1715 2.93404 87.7789 2.96967 86.8856C3.07732 84.7415 3.07732 80.6674 3.04131 77.8445V77.7728C3.04131 77.4514 3.04131 77.058 2.64827 76.7722C2.07632 76.4152 1.39751 76.0938 0.504162 75.8429C0.18276 75.7364 -0.0317668 75.5575 0.00385857 75.3433C0.00385857 75.1288 0.218387 74.8787 0.683066 74.807C1.86219 74.6998 4.93487 73.9497 6.15001 73.4134C6.22164 73.4846 6.32891 73.6995 6.32891 73.9853L6.29328 74.378C6.25727 74.7714 6.22164 75.2361 6.22164 75.7004C6.22164 75.8433 6.36492 75.9505 6.50742 75.9505C6.57906 75.9505 6.65069 75.9149 6.72195 75.8789C9.00894 74.0922 11.0814 73.449 12.1533 73.449C13.9047 73.449 15.2627 74.2711 16.299 75.9861C16.3702 76.0938 16.4419 76.1294 16.5491 76.1294C16.6204 76.1294 16.7272 76.0938 16.7633 76.0222C18.8717 74.414 20.9802 73.449 22.3735 73.449C25.6967 73.449 27.6623 75.9149 27.6623 80.0958C27.6623 81.275 27.6623 82.8115 27.6267 84.2055C27.6267 85.4559 27.591 86.5994 27.591 87.4215C27.591 87.5996 27.8408 88.1715 28.2338 88.2788C28.7341 88.529 29.4134 88.6362 30.3067 88.7791H30.3423C30.414 89.0293 30.2711 89.9582 30.1282 90.1371C29.9137 90.1371 29.5919 90.1371 29.2348 90.1015C28.3303 90.0543 27.4246 90.0304 26.5188 90.0299C24.3034 90.0299 23.1599 90.0655 22.0517 90.1371C21.9808 89.8514 21.9448 88.9936 22.0517 88.7791C22.6953 88.6722 23.0167 88.5646 23.4101 88.4577C24.1249 88.2432 24.3034 87.9214 24.3395 86.9924C24.3395 86.3136 24.482 80.5245 24.2674 79.1309C24.0533 77.7016 22.981 76.0222 20.6224 76.0222C19.7291 76.0222 18.3358 76.3796 16.9778 77.4154C16.9065 77.4871 16.8345 77.6656 16.8345 77.7728V77.8088C16.9778 78.5589 16.9778 79.417 16.9778 80.739V83.0616C16.9778 84.6698 16.9418 86.1707 16.9778 87.3138C16.9778 88.1003 17.4425 88.2788 17.8355 88.4221C18.05 88.4573 18.1925 88.4933 18.3714 88.529C18.6928 88.6006 19.0146 88.6722 19.5149 88.7791C19.5866 88.9224 19.5866 89.3867 19.4793 89.7797C19.4433 89.9942 19.3717 90.1011 19.336 90.1371C18.1213 90.1015 16.8705 90.0655 15.0482 90.0655C14.5123 90.0655 13.5829 90.1015 12.7968 90.1015C12.1533 90.1015 11.5461 90.1371 11.1891 90.1371C11.153 90.0655 11.0814 89.8157 11.0814 89.4223C11.0814 89.1009 11.153 88.8508 11.2247 88.7791C11.4032 88.7435 11.5461 88.7079 11.725 88.7079C12.1533 88.6362 12.5111 88.5646 12.8681 88.4933C13.476 88.3148 13.6902 87.993 13.7258 87.207C13.8331 85.4203 13.9403 80.3104 13.6902 79.0236C13.2615 76.9511 12.0824 75.9149 10.1881 75.9149C9.08058 75.9149 7.68654 76.4508 6.54343 77.3089C6.36453 77.4514 6.22164 77.8085 6.22164 78.1302V80.2387C6.22164 82.8115 6.22164 86.0278 6.25727 87.4215C6.29328 87.8498 6.43578 88.3504 7.25788 88.529C7.43678 88.5646 7.72255 88.6362 8.07997 88.6722L8.72277 88.7791C8.7948 88.9936 8.75879 89.8514 8.6159 90.1371C8.25848 90.1371 7.82982 90.1015 7.32913 90.1015C6.57906 90.0655 5.61408 90.0299 4.54222 90.0299C3.29146 90.0299 2.39812 90.0655 1.68329 90.1015C1.18298 90.0299 0.789941 90.0299 0.361275 90.0299Z" fill="#499D4A"/>
</svg>
