<svg width="16" height="16" viewBox="0 0 16 16" fill="none" xmlns="http://www.w3.org/2000/svg">
<g clip-path="url(#clip0)">
<path d="M15.5169 6.70427C14.9097 2.97171 11.8139 0.264495 8.20023 0.00144269C7.83474 -0.0251526 7.60976 0.396754 7.84224 0.680046C8.769 1.8094 9.32023 3.25875 9.30498 4.83722C9.27066 8.39294 6.33191 11.269 2.77623 11.2302C2.13051 11.2231 1.50754 11.1212 0.920585 10.9378C0.569143 10.828 0.260201 11.1924 0.422445 11.5229C1.93564 14.6053 5.33276 16.475 8.89764 15.8952C13.2635 15.185 16.227 11.0701 15.5169 6.70427V6.70427Z" fill="#006FAC"/>
<path d="M1.26232 12.8731C1.9332 13.0383 2.63706 13.1298 3.36305 13.1371C8.00569 13.1835 11.8428 9.74539 11.8877 5.49477C11.9075 3.60781 9.87903 0.379839 9.86335 0.302823C9.32698 0.145338 8.77005 0.0429326 8.20017 0.00144269C7.83468 -0.0251526 7.6097 0.396754 7.84218 0.680046C8.76897 1.8094 9.32017 3.25875 9.30492 4.83722C9.2706 8.39294 6.33185 11.269 2.77617 11.2302C2.13041 11.2231 1.50748 11.1212 0.920524 10.9378C0.569082 10.828 0.26014 11.1924 0.422384 11.5229C0.658646 12.0041 0.940797 12.4557 1.26232 12.8731Z" fill="#005A8C"/>
<path d="M6.48588 6.72921C6.21774 6.5553 5.99732 6.33811 5.82777 6.07479C5.74877 5.95208 5.56945 5.94997 5.4848 6.06886C5.31304 6.31018 5.09281 6.52304 4.82966 6.7107C4.70852 6.7971 4.7136 6.98119 4.83973 7.06016C5.10217 7.22452 5.32207 7.43731 5.49344 7.70529C5.57241 7.82878 5.75353 7.82924 5.83468 7.70718C6.00058 7.45772 6.22335 7.25177 6.48767 7.07763C6.61397 6.99452 6.6127 6.81148 6.48588 6.72921V6.72921Z" fill="#006FAC"/>
<path d="M2.48501 2.84652C2.21688 2.67261 1.99646 2.45542 1.82691 2.1921C1.74791 2.06939 1.56859 2.06728 1.48394 2.18617C1.31218 2.42749 1.09196 2.64035 0.828808 2.82801C0.707663 2.91441 0.712747 3.09849 0.838879 3.17747C1.10131 3.34183 1.32121 3.55462 1.49258 3.8226C1.57155 3.94609 1.75267 3.94655 1.83382 3.82449C1.99972 3.57503 2.22248 3.36908 2.48681 3.19494C2.61307 3.11179 2.61183 2.92875 2.48501 2.84652V2.84652Z" fill="#006FAC"/>
<path d="M5.42321 3.59529C5.28818 3.59529 5.17877 3.48584 5.17877 3.35084V2.43585C5.17877 2.30085 5.28818 2.19141 5.42321 2.19141C5.55824 2.19141 5.66766 2.30085 5.66766 2.43585V3.35081C5.66766 3.48584 5.55824 3.59529 5.42321 3.59529V3.59529Z" fill="#00A4FF"/>
<path d="M5.88072 3.13781H4.96575C4.83073 3.13781 4.72131 3.02836 4.72131 2.89337C4.72131 2.75837 4.83073 2.64893 4.96575 2.64893H5.88072C6.01574 2.64893 6.12516 2.75837 6.12516 2.89337C6.12516 3.02836 6.01574 3.13781 5.88072 3.13781Z" fill="#0C7EBD"/>
<path d="M1.8034 8.11797C1.66837 8.11797 1.55896 8.00853 1.55896 7.87353V6.95856C1.55896 6.82356 1.66837 6.71411 1.8034 6.71411C1.93843 6.71411 2.04784 6.82356 2.04784 6.95856V7.87353C2.04784 8.00853 1.9384 8.11797 1.8034 8.11797Z" fill="#00A4FF"/>
<path d="M2.26078 7.66051H1.34582C1.21079 7.66051 1.10138 7.55107 1.10138 7.41607C1.10138 7.28108 1.21079 7.17163 1.34582 7.17163H2.26078C2.39581 7.17163 2.50522 7.28108 2.50522 7.41607C2.50522 7.55107 2.39578 7.66051 2.26078 7.66051Z" fill="#0C7EBD"/>
</g>
<defs>
<clipPath id="clip0">
<rect width="16" height="16" fill="white"/>
</clipPath>
</defs>
</svg>
