<svg width="101" height="100" viewBox="0 0 101 100" fill="none" xmlns="http://www.w3.org/2000/svg">
<g clip-path="url(#clip0)">
<path d="M68.3805 22.9191C67.9014 22.9191 67.5764 22.9775 67.2389 23.0566V23.1108H67.2972C67.5222 23.5441 67.9055 23.8608 68.1889 24.2483C68.4139 24.6941 68.6055 25.14 68.8305 25.5816L68.8889 25.5191C69.2805 25.2442 69.4722 24.8025 69.4722 24.1316C69.3055 23.9358 69.2805 23.74 69.1389 23.5483C68.9722 23.2691 68.6139 23.1316 68.3889 22.9108L68.3805 22.9191ZM24.068 77.8941H20.2055C20.0969 71.7557 19.7216 65.625 19.0805 59.5191H19.0472L13.1722 77.8941H10.2347L4.40137 59.5191H4.3597C3.90342 65.6345 3.63247 71.7623 3.5472 77.8941H0.0263672C0.255534 69.7025 0.826367 62.0191 1.7347 54.8525H6.52637L12.0889 71.7858H12.1222L17.7347 54.8525H22.2972C23.3055 63.2483 23.8972 70.9358 24.0805 77.8941H24.068ZM40.8055 60.8941C39.2305 69.415 37.1555 75.615 34.5889 79.4775C32.5805 82.4608 30.3805 83.9483 27.993 83.9483C27.3555 83.9483 26.5764 83.7566 25.6347 83.3733V81.315C26.093 81.3858 26.6347 81.4233 27.243 81.4233C28.3597 81.4233 29.2555 81.1108 29.9389 80.4983C30.7597 79.7483 31.168 78.9066 31.168 77.9775C31.168 77.3316 30.8472 76.0191 30.2097 74.0441L25.9847 60.8941H29.7764L32.8055 70.7275C33.4889 72.9608 33.7764 74.5191 33.6597 75.4066C35.3264 70.9733 36.4847 66.1275 37.1389 60.8941H40.8055ZM92.1597 77.8941H81.2014V54.8525H84.8889V75.0608H92.1597V77.8941ZM78.3264 78.4566L74.093 76.3733C74.468 76.0566 74.8305 75.715 75.1555 75.3316C76.9597 73.2233 77.8555 70.09 77.8555 65.9441C77.8555 58.3191 74.8639 54.5025 68.8764 54.5025C65.943 54.5025 63.6514 55.4691 62.0014 57.4066C60.2097 59.5233 59.3097 62.64 59.3097 66.7608C59.3097 70.8108 60.1014 73.7858 61.7014 75.6775C63.1597 77.3858 65.3555 78.24 68.2972 78.24C69.3972 78.24 70.4055 78.1025 71.318 77.8316L76.8389 81.0483L78.3389 78.4566H78.3264ZM64.6097 73.2816C63.6722 71.7816 63.2055 69.365 63.2055 66.0483C63.2055 60.2441 64.9722 57.34 68.4972 57.34C70.343 57.34 71.7055 58.0358 72.568 59.4233C73.5014 60.9316 73.968 63.3233 73.968 66.6025C73.968 72.4525 72.2014 75.3858 68.6764 75.3858C66.8222 75.3858 65.468 74.69 64.6014 73.3025L64.6097 73.2816ZM57.7014 71.5108C57.7014 73.4691 56.9847 75.0775 55.5514 76.3275C54.118 77.5775 52.2055 78.2025 49.7847 78.2025C47.5222 78.2025 45.3514 77.4858 43.2305 76.0566L44.218 74.0733C46.043 74.99 47.6889 75.44 49.1764 75.44C50.5597 75.44 51.6472 75.1358 52.4389 74.5233C52.8345 74.225 53.154 73.8374 53.3713 73.392C53.5885 72.9467 53.6974 72.4563 53.6889 71.9608C53.6889 70.5858 52.7305 69.4191 50.9889 68.44C49.3722 67.5525 46.143 65.7025 46.143 65.7025C44.3847 64.4233 43.5097 63.0525 43.5097 60.7983C43.5097 58.9233 44.1639 57.4233 45.468 56.2775C46.7805 55.1191 48.468 54.5483 50.5514 54.5483C52.6847 54.5483 54.6347 55.115 56.3847 56.2566L55.4972 58.24C54.0989 57.6257 52.591 57.2998 51.0639 57.2816C49.8847 57.2816 48.9722 57.565 48.3389 58.14C48.0175 58.4062 47.7584 58.7397 47.5798 59.1169C47.4013 59.4942 47.3077 59.906 47.3055 60.3233C47.3055 61.69 48.2805 62.865 50.0805 63.865C51.718 64.7608 55.0264 66.6566 55.0264 66.6566C56.8305 67.9275 57.7264 69.2816 57.7264 71.5233L57.7014 71.5108ZM96.793 47.1275C94.5639 47.0691 92.8347 47.2941 91.3889 47.9108C90.9722 48.0775 90.3055 48.0775 90.2472 48.6067C90.4764 48.8275 90.5097 49.19 90.7055 49.4983C91.0389 50.0566 91.6139 50.8025 92.1472 51.1941C92.7305 51.6525 93.3139 52.0941 93.9264 52.4858C95.0097 53.1525 96.2389 53.5483 97.3014 54.2191C97.9055 54.6108 98.5222 55.1066 99.1347 55.5233C99.4389 55.7316 99.6347 56.1066 100.026 56.24V56.1566C99.8347 55.9066 99.7764 55.5441 99.5889 55.265C99.3097 54.9858 99.0305 54.7358 98.7555 54.4608C97.9375 53.3828 96.9612 52.4345 95.8597 51.6483C94.968 51.04 93.018 50.19 92.6514 49.1691L92.5972 49.1108C93.2055 49.0566 93.9305 48.8358 94.5139 48.6691C95.4597 48.4191 96.3264 48.4733 97.3055 48.2275C97.7472 48.115 98.193 47.9775 98.6389 47.8358V47.5858C98.1389 47.0858 97.7639 46.4066 97.2472 45.94C95.8051 44.6794 94.2671 43.5329 92.6472 42.5108C91.7722 41.9525 90.6639 41.5942 89.743 41.1192C89.4097 40.9525 88.8514 40.8691 88.6597 40.59C88.1597 39.9816 87.868 39.1733 87.5139 38.4483C86.6957 36.8612 85.9355 35.2448 85.2347 33.6025C84.7347 32.5108 84.4305 31.4233 83.818 30.4233C80.943 25.6858 77.8305 22.815 73.043 20.0066C72.0139 19.4233 70.7805 19.1733 69.4764 18.865C68.7805 18.8316 68.0847 18.7816 67.393 18.7525C66.9347 18.5566 66.493 18.0275 66.1014 17.7733C64.518 16.7733 60.418 14.6066 59.2514 17.4733C58.5014 19.2816 60.3639 21.065 61.0097 21.9816C61.4889 22.6191 62.093 23.3483 62.4264 24.065C62.6222 24.5483 62.6764 25.0441 62.8722 25.5483C63.3139 26.7733 63.7347 28.14 64.318 29.2858C64.6222 29.8691 64.9555 30.4816 65.3472 31.0066C65.5722 31.3108 65.9555 31.4525 66.043 31.9525C65.6514 32.5191 65.6264 33.3441 65.4014 34.0358C64.4014 37.19 64.793 41.09 66.2097 43.4108C66.6555 44.1025 67.718 45.6358 69.1389 45.0483C70.3889 44.5483 70.1139 42.965 70.4722 41.5692C70.5555 41.2358 70.5014 41.015 70.6722 40.79V40.8525C71.0639 41.6358 71.4555 42.3816 71.8139 43.165C72.6722 44.5316 74.1722 45.9483 75.4264 46.8941C76.093 47.3941 76.6222 48.2608 77.4555 48.5691V48.4858H77.393C77.2139 48.2441 76.9764 48.1275 76.7514 47.9316C76.2231 47.4145 75.7355 46.8573 75.293 46.265C74.1191 44.6609 73.0781 42.9636 72.1805 41.19C71.7222 40.315 71.3389 39.3733 70.9722 38.5108C70.8055 38.1775 70.8055 37.6775 70.5264 37.5108C70.1097 38.1192 69.4972 38.6483 69.193 39.3983C68.6639 40.5983 68.6097 42.0733 68.4097 43.6066C68.2972 43.6358 68.3514 43.6066 68.2972 43.665C67.4055 43.4483 67.1014 42.5233 66.768 41.7483C65.9347 39.7692 65.7972 36.59 66.518 34.3108C66.7139 33.7275 67.5472 31.8858 67.2139 31.3275C67.0389 30.7983 66.4889 30.4942 66.1847 30.065C65.7934 29.5064 65.4585 28.9104 65.1847 28.2858C64.518 26.7275 64.1847 25.0025 63.4597 23.4441C63.1264 22.7233 62.543 21.9691 62.068 21.3066C61.5389 20.5566 60.9555 20.0275 60.5347 19.14C60.3972 18.8358 60.2014 18.3317 60.4222 17.9983C60.4805 17.7733 60.5972 17.6858 60.8139 17.6233C61.1805 17.3233 62.2097 17.715 62.5722 17.8816C63.6014 18.2983 64.468 18.69 65.3305 19.2733C65.7222 19.5483 66.143 20.0775 66.643 20.215H67.2264C68.118 20.4108 69.1222 20.2733 69.9555 20.5192C71.4347 20.9942 72.768 21.6858 73.9639 22.4358C77.6486 24.7896 80.6457 28.0756 82.6514 31.9608C82.9847 32.6025 83.1305 33.19 83.4347 33.8567C84.018 35.2317 84.7389 36.6191 85.3305 37.9483C85.9139 39.2608 86.4764 40.5983 87.3139 41.6858C87.7305 42.2691 89.4055 42.5733 90.1555 42.8775C90.7097 43.1275 91.5722 43.3566 92.0722 43.6608C93.0305 44.2442 93.9639 44.9108 94.8639 45.5525C95.3222 45.8691 96.7097 46.565 96.793 47.1275Z" fill="#00D8FF"/>
</g>
<defs>
<clipPath id="clip0">
<rect width="100" height="100" fill="white" transform="translate(0.0263672)"/>
</clipPath>
</defs>
</svg>
