<svg width="101" height="100" viewBox="0 0 101 100" fill="none" xmlns="http://www.w3.org/2000/svg">
<path d="M59.4624 0C58.7394 0 58.0679 0.155689 57.448 0.363143C58.7651 1.24433 59.4882 2.41102 59.8495 3.73339C59.8757 3.91496 59.9273 4.04477 59.953 4.22595C59.9788 4.38164 60.0046 4.53733 60.0046 4.69262C60.1081 6.97423 59.4109 7.25933 58.9198 8.60759C58.171 10.3449 58.3776 12.2116 59.2816 13.7151C59.3589 13.8967 59.4624 14.1041 59.5913 14.2857C58.6101 7.726 64.0593 6.74089 65.0663 4.69262C65.1437 2.90397 63.6718 1.71101 62.5097 0.881582C61.3991 0.207062 60.3921 0 59.4624 0ZM67.6745 1.47767C67.5714 2.07415 67.6487 1.91846 67.623 2.22984C67.5972 2.43729 67.5972 2.69651 67.5714 2.90397C67.5198 3.11103 67.4683 3.31848 67.3905 3.52594C67.339 3.73378 67.2616 3.94085 67.1843 4.1483C67.0808 4.35575 67.0034 4.53733 66.8999 4.74439C66.8226 4.84831 66.771 4.95223 66.6933 5.05577L66.5386 5.2891C66.4097 5.47067 66.2804 5.65225 66.1511 5.80754C65.996 5.96323 65.8671 6.1448 65.6862 6.27422V6.3001C65.5312 6.4299 65.3765 6.58559 65.1956 6.71501C64.6534 7.12992 64.0335 7.4409 63.4651 7.82993C63.2847 7.95934 63.1038 8.06326 62.9487 8.21895C62.7679 8.34837 62.6128 8.47778 62.4581 8.63386C62.2773 8.78916 62.1483 8.94485 61.9933 9.12642C61.8644 9.28171 61.7093 9.46368 61.6058 9.64486C61.4769 9.82643 61.348 10.0076 61.2444 10.1892C61.1409 10.397 61.0636 10.5782 60.9601 10.7853C60.8827 10.9931 60.8054 11.1747 60.7538 11.3817C60.6761 11.6151 60.6245 11.8225 60.573 12.03C60.5472 12.1339 60.5472 12.2633 60.5214 12.3673C60.4952 12.4708 60.4952 12.5747 60.4698 12.6782C60.4698 12.8857 60.4437 13.119 60.4437 13.3265C60.4437 13.4822 60.4437 13.6375 60.4698 13.7932C60.4698 14.0006 60.4956 14.2081 60.5472 14.4414C60.573 14.6489 60.6245 14.8559 60.6761 15.0634C60.7538 15.2712 60.8054 15.4783 60.8831 15.6857C60.9343 15.8152 61.012 15.945 61.0636 16.0489L55.1241 13.7414C54.132 13.4578 53.1331 13.1984 52.1284 12.9633L50.5015 12.5747C48.9519 12.2633 47.3765 12.03 45.8015 11.8747C45.7499 11.8747 45.7237 11.8484 45.6726 11.8484C44.1364 11.6931 42.5935 11.6152 41.0495 11.6151C39.9132 11.6151 38.7769 11.6668 37.6667 11.7445C36.0909 11.8484 34.5159 12.0559 32.9401 12.3151C32.553 12.3673 32.1655 12.4449 31.7784 12.5229C30.9776 12.6782 30.203 12.8598 29.4542 13.0414L28.2917 13.3524C27.9046 13.5081 27.5429 13.6896 27.1815 13.8449L26.3292 14.2339C26.2776 14.2598 26.2257 14.2598 26.2003 14.2857C25.9417 14.4151 25.7093 14.5191 25.4769 14.6485C25.4146 14.6697 25.3542 14.6958 25.296 14.7265C25.012 14.8559 24.728 15.0116 24.4956 15.1414C24.3148 15.2191 24.1339 15.3226 23.9792 15.4002C23.9043 15.4479 23.8267 15.4913 23.7468 15.53C23.5144 15.6595 23.2819 15.7893 23.0749 15.9191C22.8429 16.0485 22.6362 16.1783 22.4554 16.3081C22.2745 16.4375 22.094 16.5414 21.939 16.6708C21.9132 16.6967 21.8874 16.6967 21.8612 16.7226C21.7065 16.8265 21.5257 16.956 21.3706 17.0858L21.319 17.1375L20.9319 17.4485C20.88 17.4748 20.8284 17.5265 20.7769 17.5524C20.648 17.656 20.5187 17.7858 20.3894 17.8897C20.3636 17.9411 20.312 17.9673 20.2862 17.9932C20.1312 18.1489 19.9761 18.2783 19.8214 18.434C19.7952 18.434 19.7952 18.4599 19.7698 18.4858C19.6148 18.6152 19.4597 18.7709 19.305 18.9266C19.2788 18.9525 19.2788 18.9783 19.253 18.9783C19.1241 19.1077 18.9952 19.2376 18.8659 19.3932C18.8144 19.445 18.737 19.4968 18.6851 19.5485C18.5562 19.7042 18.4011 19.8599 18.246 20.0152C18.2202 20.0674 18.1687 20.0933 18.1425 20.145C17.9362 20.3525 17.7554 20.5599 17.5487 20.7674L17.4714 20.845C17.0581 21.2858 16.619 21.7266 16.1542 22.1156C15.6963 22.5259 15.2132 22.9069 14.7077 23.2564C14.207 23.609 13.69 23.9377 13.1585 24.2416C12.6314 24.5318 12.0882 24.7914 11.5315 25.0192C10.9822 25.2536 10.4219 25.4613 9.85264 25.6416C8.76826 25.8749 7.65733 26.3157 6.70225 26.3934C6.49522 26.3934 6.26319 26.4451 6.05654 26.471C5.82412 26.5232 5.61748 26.5749 5.41084 26.6267L4.79092 26.86C4.58428 26.9377 4.37803 27.0416 4.17139 27.1451C3.99053 27.2745 3.78389 27.3785 3.60303 27.5083C3.42217 27.6377 3.2417 27.7934 3.08662 27.9491C2.90576 28.0785 2.7249 28.26 2.57022 28.4157C2.41514 28.5973 2.26006 28.753 2.13115 28.9342C2.00225 29.1416 1.84717 29.3232 1.74365 29.5303C1.61475 29.7122 1.48545 29.9193 1.38193 30.1267C1.27881 30.3601 1.17568 30.5675 1.09795 30.8013C1.01649 31.0244 0.939004 31.2491 0.865527 31.475C0.813965 31.6825 0.762402 31.8899 0.736621 32.0974C0.736621 32.1232 0.710449 32.1491 0.710449 32.175C0.658887 32.4084 0.658887 32.7197 0.633105 32.875C0.607324 33.0566 0.581543 33.2123 0.581543 33.3935C0.581543 33.4974 0.581543 33.6268 0.607324 33.7307C0.633105 33.9123 0.658887 34.068 0.71084 34.2233C0.762402 34.379 0.813965 34.5343 0.891699 34.69V34.7158C0.969043 34.8715 1.07217 35.0272 1.17568 35.1825C1.27881 35.3382 1.38232 35.4939 1.51162 35.6492C1.64053 35.7786 1.79522 35.9347 1.95029 36.0641C2.10537 36.2198 2.26045 36.3492 2.44092 36.479C3.06084 37.0233 3.21592 37.2049 4.01631 37.6198C4.14522 37.6975 4.27451 37.7492 4.42959 37.8273C4.45537 37.8273 4.48115 37.8531 4.50693 37.8531C4.50693 37.9049 4.50693 37.9308 4.53311 37.9826C4.55889 38.1904 4.61045 38.3975 4.66201 38.6049C4.71357 38.8383 4.79092 39.0457 4.86865 39.2273C4.946 39.383 4.99756 39.5383 5.07529 39.694C5.10108 39.7457 5.12686 39.7979 5.15264 39.8234C5.25615 40.0312 5.35967 40.2124 5.46279 40.394L5.8499 40.9383C5.97881 41.094 6.13389 41.2756 6.28897 41.4312C6.44404 41.5865 6.59912 41.7163 6.77959 41.8716C6.77959 41.8716 6.80576 41.8979 6.83115 41.8979C6.98623 42.0273 7.14131 42.1567 7.296 42.2607C7.47686 42.3901 7.65772 42.494 7.86436 42.5979C8.04522 42.7015 8.25186 42.8054 8.45811 42.883C8.61319 42.9607 8.79405 43.0124 8.97491 43.0646C9.00069 43.0905 9.02647 43.0905 9.07803 43.1164C9.18155 43.1422 9.31045 43.1681 9.41397 43.194C9.33623 44.594 9.31045 45.9164 9.51709 46.3831C9.74951 46.9015 10.8858 45.3203 12.0222 43.5054C11.8675 45.294 11.7644 47.3941 12.0222 48.0164C12.3062 48.6647 13.8558 46.6423 15.1987 44.4125C33.5089 40.1606 50.2175 52.8647 51.9737 70.8062C51.6378 68.0062 48.2034 66.4505 46.628 66.8395C45.853 68.7579 44.5362 71.2211 42.4187 72.7505C42.5991 71.0395 42.5218 69.2764 42.1601 67.5654C41.5921 69.9505 40.4816 72.1804 38.9577 74.0988C36.5046 74.2804 34.0515 73.0878 32.7597 71.2988C32.6566 71.2211 32.6308 71.0654 32.5534 70.9615C32.4757 70.7803 32.3983 70.5988 32.3464 70.4172C32.2712 70.2434 32.2192 70.0603 32.1917 69.8729C32.1659 69.6913 32.1659 69.5097 32.1659 69.3023V68.9136C32.1917 68.7321 32.2433 68.5505 32.2948 68.3689C32.3464 68.1877 32.3983 68.0062 32.4757 67.8246C32.5792 67.643 32.6566 67.4614 32.7855 67.2803C33.2245 66.0355 33.2245 65.0246 32.4241 64.4281C32.2691 64.3265 32.1048 64.2398 31.9335 64.1692C31.83 64.143 31.7011 64.0908 31.5976 64.0653C31.5202 64.039 31.4687 64.0132 31.3909 63.9873C31.2105 63.9355 31.0296 63.8837 30.8487 63.8579C30.6725 63.8066 30.49 63.7803 30.3066 63.7798C30.1257 63.7539 29.919 63.7281 29.7382 63.7281C29.6093 63.7281 29.4804 63.7539 29.3507 63.7539C29.1444 63.7539 28.9636 63.7802 28.7827 63.832C28.6019 63.8579 28.421 63.8837 28.2405 63.9355C28.0597 63.9873 27.8788 64.0394 27.698 64.1171C27.5175 64.1947 27.362 64.2728 27.1815 64.3504C27.0265 64.4281 26.8718 64.532 26.6909 64.6096C20.6737 68.5509 24.2632 77.7804 28.3694 80.4511C26.8198 80.7362 25.2444 81.0734 24.8058 81.4103L24.7542 81.4621C25.8644 82.1366 27.0265 82.7068 28.2405 83.1993C29.8933 83.7437 31.6495 84.2362 32.4241 84.4437V84.4696C34.5638 84.91 36.7517 85.0669 38.9319 84.9362C50.3726 84.1323 59.7472 75.3953 61.4515 63.8837C61.503 64.1171 61.555 64.3245 61.6066 64.5579C61.6839 65.0245 61.7874 65.5171 61.839 66.0097V66.0359C61.8905 66.2693 61.9163 66.5026 61.9425 66.7101V66.8136C61.9683 67.0469 61.9941 67.2803 61.9941 67.4877C62.0198 67.7728 62.0456 68.0579 62.0456 68.3434V68.7579C62.0456 68.8877 62.0714 69.0434 62.0714 69.1729C62.0714 69.3285 62.0456 69.4842 62.0456 69.6395V70.0027C62.0456 70.1842 62.0198 70.3399 62.0198 70.5211C62.0198 70.625 62.0198 70.7286 61.9937 70.8584C61.9937 71.0395 61.9679 71.2211 61.9679 71.4286C61.9421 71.5062 61.9421 71.5843 61.9421 71.6619C61.9163 71.8694 61.8905 72.0509 61.8644 72.258C61.8644 72.336 61.8644 72.4137 61.8386 72.4917C61.8128 72.7505 61.7612 72.9843 61.7355 73.2435V73.2953C61.6839 73.5286 61.6319 73.7882 61.5804 74.0216V74.0992L61.4253 74.7992C61.4253 74.8251 61.3995 74.8769 61.3995 74.9027C61.348 75.1361 61.2964 75.3694 61.2187 75.6031V75.6808C61.1413 75.94 61.064 76.1733 61.0124 76.4067C60.9862 76.4326 60.9862 76.4585 60.9862 76.4585L60.7538 77.2361C60.6507 77.4957 60.5734 77.7291 60.4698 77.9883C60.3667 78.2471 60.289 78.5067 60.1858 78.7401C60.0823 78.9993 59.9788 79.2326 59.8761 79.4918H59.8499C59.7468 79.7252 59.6433 79.9844 59.514 80.2177C59.493 80.2802 59.4671 80.3409 59.4366 80.3993C59.4109 80.4256 59.4108 80.4511 59.3851 80.4773C57.7066 83.8735 55.2273 86.8551 52.1284 89.1885C51.9214 89.3179 51.7151 89.4739 51.5085 89.6292C51.4569 89.681 51.3796 89.7073 51.3276 89.7587C51.1468 89.8885 50.9663 90.0183 50.7597 90.1477L50.837 90.3034H50.8628L51.9476 90.1477H51.9733C52.6452 90.0442 53.3163 89.9144 53.9878 89.7849C54.1687 89.7591 54.3753 89.7073 54.5558 89.6555C54.6851 89.6292 54.7882 89.6034 54.9175 89.5775C55.0984 89.5516 55.2792 89.4998 55.4597 89.4736C55.6148 89.4218 55.7698 89.3959 55.9245 89.3441C58.5073 88.7218 61.0124 87.8661 63.414 86.8551C59.3077 92.4811 53.8069 97.0184 47.3765 100C50.3464 99.7925 53.3163 99.3 56.1831 98.4706C66.5905 95.385 75.3452 88.359 80.5878 78.8957C79.5236 84.8986 77.1513 90.5913 73.6405 95.5666C76.1433 93.9091 78.4558 91.9788 80.5359 89.8108C86.321 83.7441 90.1171 76.0435 91.4085 67.7728C92.2895 71.8761 92.542 76.0902 92.1573 80.2699C110.803 54.1612 93.707 27.0938 86.5534 19.9638C86.5273 19.9121 86.5019 19.8862 86.5019 19.8344C86.4757 19.8603 86.4757 19.8603 86.4757 19.8862C86.4757 19.8599 86.4757 19.8599 86.4499 19.8344C86.4499 20.1454 86.4241 20.4564 86.3984 20.7678C86.321 21.3639 86.2433 21.9345 86.1402 22.5051C86.0112 23.0753 85.8562 23.6455 85.7011 24.2161C85.5172 24.7773 85.3104 25.3307 85.0812 25.8749C84.8487 26.3937 84.5905 26.9381 84.3066 27.4569C84.0226 27.9495 83.7128 28.4679 83.3769 28.9346C83.0448 29.4167 82.6916 29.8839 82.3183 30.3346C81.9304 30.8013 81.5175 31.2162 81.1042 31.6311C80.8611 31.8544 80.6113 32.0705 80.3554 32.2789C80.1484 32.4605 79.9679 32.6162 79.7612 32.7978C79.2964 33.1605 78.8316 33.4978 78.3151 33.8088C77.8245 34.1198 77.3077 34.4311 76.7917 34.6903C76.2487 34.9496 75.7066 35.1829 75.1644 35.4162C74.614 35.6248 74.0538 35.8065 73.4859 35.9606C72.9148 36.1149 72.3374 36.2447 71.7554 36.3496C71.1616 36.4535 70.5679 36.5053 69.9995 36.557C69.5862 36.5829 69.173 36.6088 68.7597 36.6088C68.1659 36.6088 67.5718 36.557 67.0038 36.5053C66.4097 36.4531 65.8155 36.3755 65.2476 36.2457C64.6538 36.1421 64.0855 35.9868 63.5171 35.8053H63.4913C64.0597 35.7531 64.628 35.7013 65.196 35.5974C65.7786 35.4954 66.3561 35.3657 66.9265 35.2088C67.4943 35.0547 68.0543 34.873 68.6046 34.6645C69.173 34.4566 69.7151 34.1978 70.2319 33.9382C70.7741 33.6794 71.2648 33.3939 71.7812 33.0829C72.2718 32.7456 72.7628 32.4083 73.2277 32.0456C73.6903 31.6845 74.1301 31.2949 74.5444 30.8789C74.9835 30.4899 75.371 30.0495 75.7585 29.6083C76.1359 29.1543 76.4976 28.6874 76.8429 28.2083C76.8944 28.1306 76.9464 28.0271 76.998 27.9495C77.2562 27.5345 77.5144 27.1196 77.7468 26.7047C78.0309 26.1907 78.2895 25.6628 78.5218 25.1231C78.7551 24.5806 78.9618 24.027 79.1413 23.4643C79.3222 22.9192 79.4515 22.349 79.5804 21.7788C79.6839 21.1827 79.7874 20.6121 79.8386 20.0415C79.8902 19.4454 79.9421 18.8493 79.9421 18.2787C79.9421 17.8638 79.9163 17.4489 79.8905 17.034C79.839 16.4379 79.7616 15.8673 79.6835 15.2967C79.582 14.7119 79.4529 14.1323 79.2968 13.5598C79.1155 13.0155 78.9351 12.4449 78.7284 11.9006C78.5214 11.3563 78.2636 10.8115 78.0054 10.2931C77.721 9.77466 77.437 9.25583 77.1273 8.76367C76.7975 8.27769 76.453 7.80204 76.0941 7.33737C75.7052 6.89015 75.3092 6.44931 74.9062 6.015C74.6886 5.79261 74.4647 5.57657 74.2347 5.36714C73.0777 4.46501 71.8798 3.61703 70.6448 2.82593C70.478 2.72935 70.3056 2.64292 70.1284 2.5671C69.2765 2.02238 68.4761 1.73728 67.6753 1.47806L67.6745 1.47767Z" fill="#E0234E"/>
</svg>
