<svg width="89" height="100" viewBox="0 0 89 100" fill="none" xmlns="http://www.w3.org/2000/svg">
<g clip-path="url(#clip0)">
<path d="M44.2907 99.8149C42.9152 99.8149 41.6315 99.4481 40.4394 98.8062L28.2433 91.5619C26.4093 90.5533 27.3263 90.1865 27.8765 90.0031C30.3523 89.1778 30.8107 88.9944 33.3782 87.527C33.6536 87.3436 34.0204 87.4353 34.2952 87.6187L43.6488 93.2124C44.0156 93.3958 44.474 93.3958 44.7491 93.2124L81.3374 72.0301C81.7042 71.8467 81.8875 71.4799 81.8875 71.0214V28.7477C81.8875 28.2892 81.7042 27.9225 81.3374 27.7391L44.7491 6.64807C44.3824 6.46468 43.9239 6.46468 43.6488 6.64807L7.06055 27.7394C6.69377 27.9228 6.51038 28.3813 6.51038 28.7481V71.0214C6.51038 71.3882 6.69377 71.8467 7.06055 72.0301L17.0561 77.8069C22.4664 80.5578 25.8588 77.3484 25.8588 74.1391V32.4155C25.8588 31.8654 26.3176 31.3152 26.9595 31.3152H31.6363C32.1865 31.3152 32.7367 31.7737 32.7367 32.4155V74.1387C32.7367 81.383 28.7934 85.601 21.9159 85.601C19.8069 85.601 18.1564 85.601 13.4799 83.3086L3.85121 77.8069C1.46713 76.4311 0 73.8636 0 71.1128V28.8398C0 26.0889 1.46713 23.5214 3.85121 22.1456L40.4394 0.963291C42.7318 -0.320446 45.8495 -0.320446 48.1419 0.963291L84.7301 22.1456C87.1142 23.5211 88.5813 26.0886 88.5813 28.8398V71.1131C88.5813 73.864 87.1142 76.4315 84.7301 77.8069L48.1419 98.9899C46.9498 99.5401 45.5744 99.8152 44.2907 99.8152V99.8149ZM55.5695 70.746C39.5221 70.746 36.2211 63.4104 36.2211 57.1747C36.2211 56.6245 36.6796 56.0744 37.3215 56.0744H42.0896C42.6398 56.0744 43.0986 56.4411 43.0986 56.9913C43.8322 61.8512 45.9412 64.2356 55.6612 64.2356C63.364 64.2356 66.6654 62.4934 66.6654 58.3671C66.6654 55.9827 65.7484 54.2405 53.7356 53.0481C43.7405 52.0394 37.5048 49.8387 37.5048 41.8612C37.5048 34.4332 43.7401 30.0318 54.1941 30.0318C65.9315 30.0318 71.7086 34.0664 72.4422 42.8695C72.4422 43.1446 72.3505 43.4197 72.1671 43.6948C71.9837 43.8782 71.7086 44.0616 71.4336 44.0616H66.6654C66.2066 44.0616 65.7484 43.6948 65.6564 43.2363C64.5561 38.1931 61.7135 36.5425 54.1941 36.5425C45.7581 36.5425 44.7491 39.4768 44.7491 41.6775C44.7491 44.337 45.9412 45.1619 57.3118 46.629C68.591 48.0962 73.9093 50.2055 73.9093 58.0917C73.8176 66.1612 67.2156 70.746 55.5695 70.746Z" fill="#539E43"/>
</g>
<defs>
<clipPath id="clip0">
<rect width="88.5813" height="100" fill="white"/>
</clipPath>
</defs>
</svg>
