<svg width="101" height="100" viewBox="0 0 101 100" fill="none" xmlns="http://www.w3.org/2000/svg">
<g clip-path="url(#clip0)">
<path d="M99.6385 59.8812C99.0389 58.1202 97.4682 56.8937 95.4369 56.5994C94.4791 56.4607 93.3822 56.5198 92.0842 56.7793C89.8217 57.2319 88.1432 57.4043 86.9182 57.4376C91.542 49.8675 95.3018 41.235 97.4662 33.1088C100.966 19.9691 99.0959 13.9831 96.9103 11.2755C91.1264 4.10884 82.6877 0.258839 72.5072 0.141036C67.0764 0.0766418 62.3088 1.11641 59.8217 1.86414C57.5061 1.46793 55.0162 1.24672 52.4037 1.20581C47.5064 1.13005 43.1795 2.16528 39.4822 4.29293C37.4354 3.62172 34.1502 2.67551 30.3564 2.07172C21.4338 0.651263 14.2424 1.75808 8.98223 5.36149C2.61269 9.72437 -0.34004 17.3047 0.206054 27.8918C0.379492 31.2532 2.31855 41.4804 5.37168 51.1797C7.12637 56.7547 8.99746 61.3842 10.933 64.941C13.6779 69.9846 16.615 72.9547 19.9123 74.0213C21.7604 74.6183 25.1182 75.0365 28.6498 72.1842C29.0975 72.71 29.6947 73.2323 30.4873 73.7176C31.4939 74.3331 32.7248 74.8361 33.9541 75.1342C38.3842 76.2081 42.5338 75.9395 46.074 74.4342C46.0959 75.0448 46.1127 75.6282 46.1268 76.132C46.1502 76.949 46.1736 77.7501 46.2045 78.4994C46.4143 83.5653 46.7697 87.5043 47.8229 90.2604C47.8807 90.4119 47.9584 90.6429 48.0404 90.888C48.5658 92.4479 49.4443 95.0592 51.6795 97.1043C53.9939 99.2229 56.7936 99.8725 59.3576 99.8725C60.6436 99.8725 61.8705 99.7088 62.9467 99.4854C66.7826 98.688 71.1393 97.4736 74.2908 93.1221C77.2705 89.0085 78.7189 82.8126 78.981 73.0501C79.015 72.774 79.0463 72.5104 79.0764 72.2592L79.1389 71.7433L79.8408 71.8032L80.0217 71.8149C83.9287 71.9876 88.7061 71.1842 91.64 69.8626C93.9584 68.8195 101.388 65.016 99.6385 59.8812Z" fill="black"/>
<path d="M92.9581 60.8795C81.341 63.2034 80.5421 59.3894 80.5421 59.3894C92.8077 41.7405 97.9355 19.3378 93.5109 13.8549C81.439 -1.10156 60.5425 5.97193 60.1937 6.15526L60.0816 6.17496C57.7863 5.71284 55.2179 5.43784 52.3308 5.392C47.0745 5.30867 43.087 6.72837 40.0613 8.95337C40.0613 8.95337 2.78391 -5.9383 4.5179 27.6822C4.88665 34.8344 15.0898 81.8007 27.2593 67.6147C31.7074 62.4272 36.0054 58.0412 36.0054 58.0412C38.1398 59.4162 40.6952 60.1178 43.3741 59.8659L43.5824 59.6947C43.5175 60.3386 43.5472 60.9685 43.6656 61.7144C40.5304 65.1109 41.4519 65.7072 35.1847 66.9583C28.8429 68.2257 32.5683 70.4818 35.0007 71.0719C37.9495 71.7867 44.7714 72.7996 49.3808 66.5424L49.1972 67.2564C50.4253 68.2106 51.2878 73.4621 51.1433 78.2231C50.9988 82.9837 50.9023 86.2522 51.8699 88.8053C52.8382 91.3583 53.8027 97.1026 62.0417 95.3909C68.9257 93.9602 72.4933 90.253 72.9898 84.0689C73.3417 79.6727 74.139 80.3227 74.189 76.392L74.8284 74.5314C75.5656 68.5719 74.9456 66.6492 79.1867 67.5435L80.2179 67.6314C83.339 67.7689 87.4249 67.1443 89.823 66.0636C94.9863 63.7401 98.0488 59.8602 92.9574 60.8795H92.9581Z" fill="#336791"/>
<path d="M42.2432 30.8807C41.1963 30.7394 40.2483 30.8701 39.7686 31.2223C39.499 31.4204 39.4155 31.65 39.3928 31.8079C39.3326 32.2265 39.635 32.6894 39.8209 32.928C40.3467 33.6038 41.1147 34.0682 41.8748 34.1704C41.985 34.1856 42.0948 34.1924 42.2037 34.1924C43.4713 34.1924 44.6241 33.2352 44.7256 32.5288C44.8526 31.6439 43.528 31.0542 42.2432 30.8811" fill="white"/>
<path d="M76.9246 30.9086C76.8246 30.215 75.552 30.0173 74.3441 30.1802C73.1379 30.3431 71.9684 30.8711 72.066 31.5662C72.1441 32.1067 73.1508 33.0294 74.3422 33.0294C74.443 33.0294 74.5445 33.023 74.6469 33.009C75.4422 32.9021 76.0258 32.4124 76.3031 32.1302C76.725 31.6999 76.9695 31.2203 76.9246 30.9086Z" fill="white"/>
<path d="M96.8238 60.6155C96.3808 59.3166 94.955 58.8988 92.5863 59.3731C85.5531 60.7806 83.0343 59.8056 82.2074 59.2151C87.6742 51.1393 92.1714 41.3772 94.5976 32.2693C95.7468 27.9549 96.3816 23.9481 96.4335 20.6821C96.4909 17.0977 95.8613 14.4636 94.5628 12.8545C89.3277 6.36775 81.6441 2.88821 72.3433 2.79275C65.9492 2.72306 60.5468 4.3098 59.4995 4.75601C57.2941 4.22419 54.8898 3.89768 52.2722 3.85601C47.4722 3.78063 43.323 4.89503 39.8878 7.16662C38.3956 6.62798 34.5394 5.34427 29.8234 4.60753C21.6702 3.3348 15.1913 4.29919 10.5679 7.47533C5.0511 11.2655 2.50422 18.0405 2.99758 27.6117C3.1636 30.8318 5.05579 40.7378 8.04172 50.2246C11.9722 62.7109 16.2449 69.7795 20.7402 71.2337C21.2663 71.4037 21.873 71.5227 22.5421 71.5227C24.182 71.5227 26.1925 70.806 28.2843 68.3674C30.8357 65.3994 33.4749 62.5035 36.1988 59.6833C37.9659 60.603 39.9074 61.1166 41.8929 61.1681C41.8968 61.2185 41.9019 61.2689 41.9066 61.3189C41.5648 61.7141 41.2301 62.1151 40.9027 62.5215C39.5269 64.2151 39.2406 64.5678 34.812 65.4518C33.5523 65.7041 30.2066 66.3727 30.1574 68.6469C30.1042 71.1318 34.1124 72.1753 34.5691 72.2859C36.1605 72.6723 37.6937 72.8628 39.1558 72.8628C42.7116 72.8628 45.8409 71.7295 48.3417 69.5367C48.2648 78.395 48.6456 87.1238 49.7425 89.7833C50.6409 91.9606 52.8355 97.2814 59.7675 97.281C60.7847 97.281 61.9042 97.1662 63.1359 96.9102C70.3706 95.4064 73.5124 92.3056 74.7277 85.4696C75.3781 81.8162 76.4941 73.0924 77.0191 68.4128C78.1269 68.7481 79.5531 68.9015 81.0949 68.9011C84.3105 68.9011 88.021 68.2386 90.348 67.1912C92.962 66.014 97.6792 63.1253 96.8238 60.6155ZM79.5949 28.9943C79.571 30.3757 79.3749 31.6299 79.1671 32.939C78.9433 34.3469 78.712 35.8026 78.6538 37.5696C78.5964 39.2893 78.8179 41.0772 79.032 42.8064C79.4648 46.2988 79.9089 49.8943 78.1898 53.442C77.9042 52.9513 77.6498 52.4442 77.4281 51.9234C77.2144 51.4212 76.7503 50.6143 76.1077 49.4977C73.6081 45.1507 67.7546 34.9712 70.7511 30.8174C71.6437 29.581 73.9089 28.3098 79.5949 28.9943ZM72.7027 5.5901C81.0363 5.76851 87.6284 8.79162 92.2956 14.575C95.8753 19.0109 91.9335 39.1954 80.5222 56.6087C80.4074 56.4672 80.2921 56.3261 80.1761 56.1856L80.0316 56.0106C82.9804 51.2882 82.4038 46.6159 81.8906 42.4734C81.6796 40.7734 81.4804 39.1678 81.5312 37.6594C81.5835 36.0609 81.8015 34.6897 82.0124 33.364C82.2714 31.7303 82.5351 30.0397 82.4624 28.0469C82.5167 27.8378 82.5386 27.5909 82.5101 27.2977C82.3245 25.3867 80.0745 19.6674 75.4886 14.4909C72.98 11.6594 69.3218 8.49086 64.3269 6.35374C66.4753 5.92192 69.4132 5.51927 72.7027 5.5901ZM26.0706 66.5825C23.7659 69.2696 22.1745 68.7545 21.6511 68.5856C18.2409 67.4825 14.2839 60.4931 10.7952 49.4098C7.77649 39.8196 6.01243 30.1761 5.87258 27.4719C5.43196 18.9196 7.56985 12.9594 12.2273 9.75639C19.807 4.54427 32.2687 7.66397 37.2761 9.24616C37.2042 9.3151 37.1292 9.3795 37.0581 9.44957C28.8409 17.4965 29.0359 31.245 29.0562 32.0856C29.0554 32.4098 29.0835 32.8689 29.1218 33.5003C29.2632 35.8128 29.5265 40.1166 28.8234 44.9905C28.1702 49.5196 29.6101 53.9526 32.773 57.153C33.0976 57.4808 33.4388 57.7928 33.7952 58.0878C32.3874 59.5499 29.3277 62.7833 26.0706 66.5825ZM34.8515 55.2215C32.3023 52.642 31.1445 49.0541 31.6745 45.3768C32.4167 40.2284 32.1429 35.7443 31.9956 33.3352C31.9749 32.9981 31.9566 32.7026 31.946 32.4696C33.1464 31.4374 38.7093 28.5473 42.6765 29.4287C44.4866 29.8306 45.5898 31.0261 46.0484 33.0821C48.4218 43.7272 46.3624 48.164 44.7077 51.7295C44.3667 52.464 44.0445 53.1583 43.7695 53.8765L43.5562 54.4318C43.0163 55.8356 42.514 57.1409 42.2027 58.3802C39.4925 58.3727 36.8562 57.2499 34.8515 55.2212V55.2215ZM35.2675 69.5776C34.4761 69.3859 33.7644 69.053 33.3468 68.7768C33.6956 68.6178 34.3163 68.4011 35.3929 68.1859C40.6027 67.1462 41.4074 66.4121 43.1644 64.2488C43.5671 63.7526 44.0238 63.1905 44.6562 62.5056L44.657 62.5049C45.5988 61.4821 46.0296 61.6556 46.8109 61.97C47.4441 62.2238 48.0609 62.9935 48.3109 63.8405C48.4292 64.2405 48.562 64.9996 48.1273 65.5905C44.457 70.5738 39.1085 70.5098 35.2675 69.5776ZM62.5327 94.1806C56.1593 95.5049 53.9027 92.3515 52.4156 88.7465C51.4558 86.4193 50.9839 75.9246 51.3187 64.3348C51.323 64.1806 51.3003 64.0318 51.2566 63.8916C51.2174 63.6149 51.1579 63.3412 51.0784 63.0727C50.5808 61.3863 49.3679 59.9757 47.9128 59.3909C47.3347 59.1587 46.2738 58.7325 44.9988 59.0488C45.2706 57.9625 45.7421 56.7356 46.2534 55.4071L46.4679 54.8484C46.7093 54.2185 47.0124 53.5659 47.3327 52.8749C49.0644 49.1446 51.4359 44.0352 48.862 32.4924C47.898 28.1689 44.6784 26.0575 39.798 26.5481C36.8722 26.8416 34.1952 27.9863 32.8601 28.6427C32.573 28.7837 32.3105 28.92 32.0652 29.0526C32.4378 24.6965 33.8456 16.5556 39.112 11.4049C42.4281 8.16245 46.8441 6.56094 52.2245 6.6473C62.8261 6.81548 69.6245 12.0912 73.4613 16.4878C76.7675 20.2761 78.5577 24.0924 79.2722 26.1507C73.8991 25.6208 70.2449 26.6492 68.3925 29.2174C64.3624 34.8037 70.5972 45.6462 73.5937 50.8571C74.1433 51.8121 74.6175 52.6375 74.7667 52.9882C75.7425 55.2814 77.0058 56.8124 77.9281 57.9299C78.2109 58.2723 78.4851 58.6045 78.6937 58.8946C77.0663 59.3496 74.1433 60.4007 74.4097 65.6549C74.1949 68.2912 72.6671 80.6344 71.8909 84.9954C70.8663 90.7568 68.68 92.9026 62.5327 94.181V94.1806ZM89.1359 64.6594C87.4718 65.4083 84.687 65.97 82.0417 66.0909C79.1199 66.2234 77.6324 65.7734 77.2824 65.4965C77.1183 62.2223 78.3749 61.8803 79.705 61.5181C79.914 61.4613 80.1179 61.4056 80.3148 61.339C80.437 61.4356 80.571 61.5314 80.7179 61.6253C83.0663 63.1284 87.255 63.2905 93.1687 62.1068L93.2335 62.0943C92.4359 62.8174 91.071 63.7878 89.1359 64.6594Z" fill="white"/>
</g>
<defs>
<clipPath id="clip0">
<rect width="100" height="100" fill="white" transform="translate(0.026123)"/>
</clipPath>
</defs>
</svg>
