<svg width="134" height="100" viewBox="0 0 134 100" fill="none" xmlns="http://www.w3.org/2000/svg">
<g clip-path="url(#clip0)">
<path d="M114.73 57.5592C110.091 57.5832 106.059 58.7003 102.684 60.3519C101.445 57.8988 100.206 55.7134 99.9881 54.1102C99.7448 52.2404 99.4537 51.0988 99.7448 48.8644C100.036 46.63 101.348 43.4483 101.323 43.2056C101.3 42.9628 101.032 41.8212 98.3605 41.7972C95.6891 41.7727 93.3818 42.3071 93.1146 43.0113C92.8474 43.7155 92.3375 45.3186 91.9974 46.9696C91.536 49.3988 86.6547 58.0686 83.862 62.6102C82.9631 60.8378 82.186 59.2832 82.0157 58.0446C81.773 56.1748 81.4813 55.0332 81.773 52.7988C82.0646 50.5644 83.3761 47.3832 83.3516 47.1399C83.3271 46.8972 83.0599 45.7556 80.3886 45.7316C77.7167 45.7071 75.4094 46.2415 75.1428 46.9457C74.8756 47.6503 74.5839 49.3014 74.0256 50.9045C73.4667 52.5076 66.9823 66.9826 65.2823 70.7222C64.5953 72.2358 63.8747 73.734 63.1209 75.2154C63.1209 75.2154 63.0964 75.2884 63.0235 75.4097C62.7867 75.8743 62.5439 76.3358 62.2954 76.7941V76.8181C61.9308 77.4743 61.5422 78.0811 61.348 78.0811C61.2021 78.0811 60.9349 76.3326 61.3964 73.9524C62.3678 68.9253 64.675 61.105 64.6511 60.8378C64.6511 60.692 65.0881 59.3321 63.1454 58.6274C61.2506 57.9233 60.5709 59.0889 60.4006 59.0889C60.2308 59.0889 60.1089 59.5019 60.1089 59.5019C60.1089 59.5019 62.2224 50.7102 56.0777 50.7102C52.2407 50.7102 46.9459 54.9118 44.323 58.7003C41.3413 60.323 38.3621 61.9502 35.3855 63.5821C33.9532 64.3837 32.4714 65.1852 31.087 65.9378C30.9896 65.841 30.8928 65.7191 30.7954 65.6222C23.3636 57.6806 9.61776 52.0701 10.2006 41.4087C10.4193 37.5227 11.7547 27.3222 36.6001 14.9363C57.049 4.85711 73.3214 7.64982 76.1386 13.843C80.1698 22.6837 67.4198 39.1014 46.2902 41.4811C38.2271 42.38 34.0011 39.2712 32.9329 38.1056C31.8157 36.891 31.6454 36.8181 31.2323 37.0613C30.5527 37.4259 30.9896 38.5186 31.2323 39.1498C31.8641 40.8009 34.4626 43.7154 38.8584 45.1488C42.7443 46.4113 52.1917 47.116 63.6308 42.6957C76.4297 37.741 86.436 23.9707 83.4974 12.4347C80.5584 0.728465 61.1292 -3.13299 42.7443 3.39982C31.8157 7.28628 19.9636 13.4061 11.4391 21.3722C1.31151 30.8436 -0.291612 39.0769 0.364117 42.5259C2.72037 54.766 19.5995 62.7321 26.3511 68.6337C26.011 68.8279 25.6948 68.9983 25.4282 69.1441C22.0521 70.8196 9.18026 77.5467 5.97453 84.6628C2.33182 92.7259 6.55787 98.5066 9.35057 99.2832C18.0209 101.688 26.9339 97.3649 31.7183 90.2243C36.5027 83.0842 35.9198 73.8066 33.7099 69.5566C33.6855 69.5082 33.6615 69.4592 33.6126 69.4108C34.487 68.9009 35.3855 68.3665 36.2599 67.8566C37.8672 66.9065 39.4948 65.9913 41.1417 65.1118C40.3157 67.3707 39.7084 70.0665 39.4172 73.9524C39.0527 78.5186 40.9224 84.4441 43.3756 86.7753C44.4688 87.7962 45.7558 87.8201 46.5818 87.8201C49.4474 87.8201 50.7349 85.4399 52.1678 82.6227C53.9162 79.1743 55.4948 75.167 55.4948 75.167C55.4948 75.167 53.5276 85.9988 58.8709 85.9988C60.8136 85.9988 62.7808 83.4727 63.6553 82.1858V82.2097C63.6553 82.2097 63.7037 82.1368 63.8011 81.967C63.9954 81.6514 64.1167 81.4566 64.1167 81.4566V81.4087C64.8938 80.0483 66.6428 76.9639 69.2412 71.8394C72.5928 65.2337 75.823 56.9764 75.823 56.9764C75.823 56.9764 76.1146 58.992 77.1099 62.3436C77.6933 64.3108 78.9068 66.4722 79.8787 68.5608C79.1016 69.654 78.6157 70.2608 78.6157 70.2608L78.6401 70.2852C78.0084 71.1108 77.3287 72.0092 76.5756 72.8842C73.9282 76.041 70.7714 79.6602 70.3339 80.704C69.8235 81.9425 69.9454 82.8415 70.9172 83.5701C71.6214 84.1045 72.8839 84.1769 74.1714 84.1045C76.5516 83.9342 78.2271 83.3514 79.0527 82.9873C80.3401 82.5259 81.8459 81.8212 83.2542 80.7769C85.8532 78.8582 87.4313 76.1139 87.286 72.4957C87.2131 70.504 86.5573 68.5123 85.7558 66.642C85.999 66.3024 86.2172 65.9623 86.4605 65.6222C90.5646 59.6233 93.7464 53.0415 93.7464 53.0415C93.7464 53.0415 94.0381 55.0571 95.0334 58.4092C95.5193 60.1092 96.5151 61.955 97.3891 63.7519C93.5276 66.8852 91.1474 70.5279 90.2974 72.9081C88.7678 77.3285 89.9573 79.3196 92.2162 79.7811C93.236 79.9998 94.6933 79.5139 95.762 79.0524C97.1219 78.6154 98.725 77.8628 100.255 76.7451C102.854 74.8269 105.355 72.155 105.209 68.5368C105.136 66.8852 104.7 65.2576 104.092 63.679C107.371 62.3196 111.597 61.5665 116.988 62.1977C128.549 63.5576 130.832 70.7707 130.394 73.8071C129.957 76.8425 127.529 78.4941 126.728 79.004C125.926 79.5144 125.659 79.6842 125.732 80.0483C125.829 80.5826 126.217 80.5587 126.897 80.4613C127.845 80.2915 132.969 78.0082 133.188 72.4222C133.552 65.2821 126.752 57.4863 114.73 57.5592ZM25.5495 87.6259C21.712 91.8029 16.3693 93.3816 14.062 92.0462C11.5849 90.6128 12.5563 84.4441 17.2678 80.0243C20.1334 77.3285 23.8251 74.8264 26.2782 73.2967C26.8365 72.9566 27.6625 72.4712 28.6584 71.8639C28.8282 71.7665 28.9256 71.7181 28.9256 71.7181L29.5084 71.3535C31.2323 77.668 29.5813 83.23 25.5495 87.6259ZM53.4792 68.6337C52.1433 71.8884 49.3506 80.2186 47.6506 79.7571C46.1933 79.3686 45.2943 73.054 47.3589 66.8123C48.4032 63.679 50.6131 59.9389 51.9006 58.4821C53.9891 56.1503 56.2964 55.3727 56.8547 56.3207C57.5594 57.5592 54.3047 66.5936 53.4792 68.6337ZM76.5271 79.6597C75.9683 79.9514 75.4344 80.1457 75.1912 79.9998C75.0214 79.9024 75.4344 79.5139 75.4344 79.5139C75.4344 79.5139 78.3245 76.4056 79.4657 74.9967C80.1219 74.1712 80.8985 73.1998 81.7245 72.1066V72.4222C81.7245 76.1384 78.1297 78.6399 76.5266 79.6597H76.5271ZM94.3047 75.604C93.8917 75.3123 93.9646 74.341 95.349 71.305C95.8834 70.1149 97.1459 68.1238 99.3079 66.205C99.5506 66.9821 99.7209 67.7352 99.6964 68.4394C99.6719 73.1269 96.3209 74.8753 94.3047 75.604Z" fill="#CD6799"/>
</g>
<defs>
<clipPath id="clip0">
<rect width="133.333" height="100" fill="white"/>
</clipPath>
</defs>
</svg>
