<svg width="100" height="100" viewBox="0 0 100 100" fill="none" xmlns="http://www.w3.org/2000/svg">
<path d="M56.4061 92.4998C56.5374 92.2029 56.8686 91.9967 57.1092 91.7467C60.7811 87.8967 64.4842 84.0811 68.1061 80.1842C69.2395 79.1374 70.1153 77.8426 70.665 76.4011C71.2147 74.9596 71.4234 73.4104 71.2749 71.8748C71.1611 71.2172 71.012 70.5663 70.828 69.9248C69.8405 70.8623 68.9217 71.7154 67.9967 72.5748C66.5592 73.9123 65.128 75.2561 63.678 76.5779C62.823 77.4497 61.7236 78.0416 60.5251 78.2754C59.3266 78.5091 58.0854 78.3738 56.9655 77.8873C55.8317 77.4708 54.8453 76.7305 54.1286 75.7583C53.412 74.7861 52.9967 73.6248 52.9342 72.4186C52.9006 72.2634 52.8557 72.1109 52.7999 71.9623C51.6967 72.8998 50.6405 73.7623 49.5936 74.6498L27.8342 93.0873C27.6842 93.2154 27.5217 93.3748 27.3811 93.4998H56.3905L56.3467 93.4717C56.1905 93.3623 56.2717 92.7873 56.4061 92.4998Z" fill="#FFCEBF"/>
<path d="M26.0533 92.4996C26.3114 92.1636 26.6228 91.8722 26.9752 91.6371L57.0877 66.0902C59.1419 64.3465 61.1867 62.5934 63.2221 60.8309C63.4736 60.6555 63.6706 60.4129 63.7908 60.1309C64.2777 58.0093 64.3467 55.8132 63.9939 53.6652C63.6814 53.884 63.5127 53.9777 63.3689 54.1309C60.9033 56.3371 58.4502 58.5621 55.9721 60.7559C55.1511 61.5821 54.0894 62.1267 52.9394 62.3115C51.7894 62.4962 50.6105 62.3115 49.5721 61.784C48.5127 61.2839 47.6261 60.4799 47.025 59.4743C46.424 58.4687 46.1358 57.307 46.1971 56.1371V55.1246C45.7439 55.4559 45.4127 55.6777 45.1033 55.9277C33.0512 65.5777 21.0012 75.2204 8.95332 84.8559C8.40957 85.2902 7.75957 86.259 7.04707 85.3184C6.33457 84.3777 7.41895 83.9902 7.96582 83.5527C20.8096 73.2465 33.6596 62.9496 46.5158 52.6621C48.6096 50.984 48.7471 50.2809 47.3846 47.6152L46.5721 48.3777C44.3439 50.4496 42.0908 52.4934 39.8971 54.5996C38.9972 55.4676 37.8702 56.0634 36.6461 56.3181C35.4221 56.5729 34.1509 56.4763 32.9795 56.0394C31.808 55.6025 30.784 54.8432 30.0257 53.8491C29.2674 52.855 28.8057 51.6668 28.6939 50.4215C28.2783 50.734 27.9189 50.9621 27.5783 51.2277L8.51582 66.0027C8.18704 66.3252 7.8121 66.5969 7.40332 66.809C7.0948 66.9022 6.7635 66.8857 6.46582 66.7621V93.5152H26.0158C25.9431 93.3546 25.9087 93.1792 25.9152 93.003C25.9217 92.8268 25.969 92.6545 26.0533 92.4996Z" fill="#FFCEBF"/>
<path d="M78.8653 7.57236C78.3341 9.31299 77.8185 11.0567 77.3528 12.8161C76.9227 14.0594 76.9728 15.4186 77.4931 16.6269C78.0134 17.8352 78.9665 18.8055 80.1653 19.3474C83.8322 21.2749 87.9643 22.1407 92.0966 21.8474V7.86924C92.0507 7.56277 92.0677 7.25016 92.1466 6.95049C92.2341 6.78097 92.3445 6.6243 92.4747 6.48486H78.8528C79.0622 6.72861 78.9903 7.15674 78.8653 7.57236Z" fill="#FF6196"/>
<path d="M51.5064 37.6007C51.4416 39.1609 50.8958 40.6629 49.9439 41.9007C46.5408 46.2937 42.6327 50.271 38.3001 53.7507C37.6015 54.3974 36.7159 54.8063 35.7705 54.9186C34.8251 55.0308 33.8684 54.8408 33.0377 54.3757C32.2108 54.0224 31.5136 53.4218 31.0419 52.6563C30.5702 51.8909 30.3471 50.9981 30.4033 50.1007C30.5034 48.9985 30.961 47.9593 31.7064 47.1413C36.5512 42.5217 41.8003 38.3456 47.3908 34.6632C47.7569 34.3761 48.2041 34.2114 48.6689 34.1923C49.1338 34.1732 49.593 34.3008 49.9814 34.557C50.4919 34.874 50.9047 35.3262 51.1738 35.8634C51.443 36.4007 51.5581 37.002 51.5064 37.6007Z" fill="#FF87AF"/>
<path d="M47.7624 56.5409C47.6898 55.8501 47.7785 55.152 48.0214 54.5013C48.2643 53.8506 48.6549 53.2651 49.1624 52.7909C53.9061 48.4156 58.9955 44.4308 64.3811 40.8753C64.5436 40.7721 64.6936 40.669 64.8717 40.5628C65.3422 40.2232 65.9121 40.0496 66.492 40.0694C67.0719 40.0892 67.6287 40.3012 68.0749 40.6721C68.5066 41.0378 68.812 41.5303 68.9478 42.0795C69.0835 42.6288 69.0427 43.2068 68.8311 43.7315C68.1498 46.0009 66.8923 48.0551 65.1811 49.694C61.7059 53.1176 58.1635 56.4725 54.5561 59.7565C54.0128 60.3152 53.2992 60.6773 52.5275 60.786C51.7559 60.8946 50.97 60.7435 50.2936 60.3565C49.5829 59.9872 48.9777 59.4433 48.5349 58.7758C48.0921 58.1084 47.8263 57.3393 47.7624 56.5409Z" fill="#FF87AF"/>
<path d="M70.313 58.6063C69.438 59.5438 68.538 60.4375 67.6973 61.3969C67.4446 61.7677 67.2349 62.1661 67.0723 62.5844C67.5348 62.7219 68.0755 63.0844 68.4505 62.9563C70.3598 62.3156 72.2223 61.5469 74.3192 60.7375C73.863 61.7875 73.5192 62.7562 73.0348 63.6437C71.0394 66.9973 68.5404 70.0243 65.6255 72.6188C64.5171 73.6875 63.3661 74.7094 62.1723 75.6844C61.5402 76.209 60.78 76.5563 59.9696 76.6907C59.1591 76.8251 58.3275 76.7418 57.5598 76.4494C56.7922 76.1569 56.1159 75.6658 55.6004 75.0262C55.0848 74.3867 54.7483 73.6216 54.6255 72.8094C54.5754 72.3578 54.6153 71.9007 54.7429 71.4646C54.8706 71.0285 55.0835 70.6221 55.3692 70.2688C59.6218 65.6508 64.4818 61.6318 69.8161 58.3219C69.8809 58.2967 69.9497 58.283 70.0192 58.2812L70.313 58.6063Z" fill="#FF87AF"/>
<path d="M77.4812 46.1592L82.8281 22.4092L86.5781 23.2873L84.6437 29.1654C82.8374 34.6342 81.0093 40.1029 79.2468 45.5779C78.9031 46.5904 78.4531 46.7779 77.4812 46.1592Z" fill="#FF6196"/>
<path d="M71.4441 60.1277C72.0097 57.9684 72.5722 55.9715 73.0472 53.9527C73.5101 51.995 74.3907 50.1604 75.6285 48.5746C76.3878 47.5777 77.241 47.9746 78.1129 48.1902C78.9191 48.3871 79.1222 48.9777 79.1566 49.7527C79.2837 51.8959 78.6311 54.0127 77.3191 55.7121C75.7572 57.6484 73.7383 59.1658 71.4441 60.1277Z" fill="#FF6196"/>
<path d="M93.7277 9.04449C93.7744 8.3485 93.7566 7.6497 93.6746 6.95699C93.6101 6.76349 93.4824 6.5973 93.3121 6.48511C93.1734 6.37231 93.011 6.2922 92.8371 6.25074C92.7371 6.23199 92.5965 6.33511 92.4621 6.48199C92.3319 6.62142 92.2215 6.7781 92.134 6.94761C92.0551 7.24729 92.0381 7.55989 92.084 7.86636V21.8414C87.9517 22.1347 83.8196 21.2689 80.1527 19.3414C78.9539 18.7995 78.0008 17.8292 77.4805 16.6209C76.9602 15.4126 76.9101 14.0534 77.3402 12.8101C77.8058 11.0507 78.3215 9.30699 78.8527 7.56636C78.9777 7.15074 79.0496 6.72261 78.8527 6.47886C78.7432 6.3602 78.592 6.28853 78.4308 6.27886C78.2244 6.28109 78.0245 6.35139 77.8621 6.47886C77.6284 6.61864 77.4422 6.82554 77.3277 7.07261C76.7027 8.94761 76.1527 10.8414 75.6746 12.7539C75.4941 13.5075 75.4455 14.2867 75.5308 15.057C75.6518 16.4507 76.1701 17.7804 77.0242 18.8882C77.8784 19.9961 79.0325 20.8356 80.3496 21.307C80.9402 21.5539 81.2871 21.7976 81.1215 22.5757C80.8933 23.5632 80.6715 24.5507 80.4465 25.5414C78.9152 32.2539 77.3923 38.9695 75.8777 45.6882C75.835 45.9878 75.7033 46.2676 75.4996 46.4914C74.5013 47.2848 73.6626 48.2604 73.0277 49.3664C72.2187 50.8259 71.659 52.4101 71.3715 54.0539C71.3163 54.5782 71.1268 55.0794 70.8214 55.5091C70.5159 55.9389 70.1048 56.2825 69.6277 56.507C68.3246 57.1664 67.1277 58.0195 65.6808 58.907C65.7773 57.167 65.7585 55.4226 65.6246 53.6851C65.5145 53.1506 65.5379 52.5973 65.6927 52.074C65.8475 51.5507 66.1289 51.0737 66.5121 50.6851C68.418 48.797 69.7766 46.4275 70.4433 43.8289C70.6425 43.2265 70.6971 42.5857 70.6028 41.9583C70.5084 41.3309 70.2678 40.7345 69.9003 40.2173C69.5328 39.7001 69.0487 39.2767 68.4873 38.9812C67.9258 38.6857 67.3027 38.5265 66.6683 38.5164C65.6412 38.5049 64.6328 38.7915 63.7652 39.3414C60.7833 41.3776 57.8532 43.4887 54.9777 45.6726C53.2683 46.9601 51.659 48.3851 50.0027 49.7351C49.9313 49.6584 49.8694 49.5734 49.8183 49.482C49.7867 49.2519 49.7247 49.027 49.634 48.8132C48.2496 46.6757 49.209 45.1226 50.7121 43.5257C52.2781 41.8842 53.1434 39.6975 53.1246 37.4289C53.1731 36.273 52.8112 35.1372 52.1027 34.2226C51.7253 33.7583 51.2602 33.3729 50.734 33.0882C49.9865 32.6791 49.1317 32.5083 48.2844 32.5988C47.437 32.6893 46.6376 33.0367 45.9933 33.5945L45.1215 34.2195C43.1308 35.6445 41.1152 37.032 39.1996 38.557C36.403 40.7897 33.6666 43.0968 30.9933 45.4757C29.7433 46.5789 28.8308 48.0851 27.534 49.1101C20.7715 54.4507 13.9371 59.6945 7.12772 64.9726C6.89358 65.1123 6.67828 65.2814 6.48709 65.4757C6.46741 65.5042 6.45066 65.5345 6.43709 65.5664C6.29334 65.9007 6.17147 66.4539 6.34022 66.657C6.38158 66.7011 6.43158 66.7362 6.48709 66.7601C6.78477 66.8837 7.11607 66.9002 7.42459 66.807C7.83338 66.5949 8.20832 66.3232 8.53709 66.0007L27.5996 51.2257C27.9402 50.9601 28.2996 50.7195 28.7152 50.4195C28.827 51.6648 29.2886 52.853 30.047 53.8471C30.8053 54.8412 31.8293 55.6005 33.0007 56.0374C34.1722 56.4743 35.4433 56.5709 36.6674 56.3161C37.8914 56.0614 39.0185 55.4656 39.9183 54.5976C42.1058 52.4914 44.3652 50.4476 46.5933 48.3757L47.4058 47.6132C48.7683 50.2789 48.6308 50.982 46.5371 52.6601C33.6704 62.9559 20.8131 73.2539 7.96522 83.5539C7.41834 83.9914 6.33709 84.3882 7.04647 85.3195C7.75584 86.2507 8.40897 85.2914 8.95272 84.857C21.0069 75.2299 33.0527 65.5903 45.0902 55.9382C45.4027 55.6882 45.7308 55.4664 46.184 55.1351V56.1476C46.1227 57.3175 46.4109 58.4792 47.0119 59.4848C47.613 60.4903 48.4996 61.2944 49.559 61.7945C50.5974 62.322 51.7763 62.5067 52.9263 62.322C54.0763 62.1372 55.138 61.5926 55.959 60.7664C58.4371 58.5789 60.8902 56.3476 63.3558 54.1414C63.5121 54.0007 63.6933 53.8945 63.9809 53.6757C64.3336 55.8237 64.2646 58.0198 63.7777 60.1414C63.6576 60.4234 63.4605 60.666 63.209 60.8414C61.1715 62.6018 59.1267 64.3549 57.0746 66.1007L26.9746 91.6507C26.6222 91.8859 26.3108 92.1772 26.0527 92.5132C25.9704 92.6665 25.9242 92.8366 25.9177 93.0105C25.9112 93.1843 25.9445 93.3574 26.0152 93.5164C26.1564 93.6221 26.3196 93.6948 26.4928 93.7289C26.6659 93.7629 26.8444 93.7576 27.0152 93.7132C27.15 93.6741 27.274 93.6046 27.3777 93.5101C27.534 93.3851 27.6902 93.2257 27.8308 93.0976L49.5902 74.6601C50.6371 73.7726 51.6933 72.8976 52.7965 71.9726C52.8523 72.1212 52.8973 72.2737 52.9308 72.4289C52.9933 73.6351 53.4086 74.7964 54.1253 75.7686C54.8419 76.7408 55.8284 77.4811 56.9621 77.8976C58.0821 78.3841 59.3233 78.5194 60.5217 78.2857C61.7202 78.0519 62.8196 77.46 63.6746 76.5882C65.1246 75.2664 66.5558 73.9226 67.9933 72.5851C68.9308 71.7257 69.8371 70.8632 70.8246 69.9351C71.0086 70.5766 71.1578 71.2275 71.2715 71.8851C71.4151 73.4157 71.204 74.9587 70.6544 76.3944C70.1048 77.8301 69.2317 79.1198 68.1027 80.1632C64.4808 84.0632 60.7777 87.8789 57.1058 91.7257C56.8652 91.9757 56.534 92.182 56.4027 92.4789C56.2715 92.7757 56.1871 93.357 56.3433 93.482L56.3871 93.5101C56.7148 93.6695 57.0832 93.7251 57.4433 93.6695C57.5442 93.6488 57.6342 93.5922 57.6965 93.5101C57.784 93.4195 57.8683 93.307 57.9527 93.2226C60.9277 90.1476 63.9183 87.0882 66.8715 83.9914C68.0635 82.7837 69.1841 81.5075 70.2277 80.1695C71.5885 78.663 72.4908 76.7993 72.8285 74.7974C73.1662 72.7956 72.9253 70.739 72.134 68.8695C72.0489 68.4526 72.132 68.0191 72.3652 67.6632C72.5683 67.3132 72.7934 66.9726 73.0246 66.6351C73.7645 65.6744 74.3808 64.6245 74.859 63.5101C75.783 60.7751 77.2013 58.2329 79.0434 56.0101C79.8902 54.9365 80.4728 53.6788 80.7442 52.3385C81.0157 50.9983 80.9682 49.613 80.6059 48.2945C80.4778 47.7932 80.4778 47.2677 80.6059 46.7664C82.1871 41.8695 83.8152 36.9882 85.4277 32.1039L87.584 25.5601L88.2496 23.5382C89.6684 23.5382 91.0059 23.5101 92.3371 23.5382C93.4434 23.5695 93.7809 23.0507 93.7683 21.9757C93.7027 17.6632 93.7277 13.3539 93.7277 9.04449ZM38.2996 53.7507C37.6009 54.3975 36.7153 54.8063 35.7699 54.9186C34.8245 55.0309 33.8678 54.8408 33.0371 54.3757C32.2102 54.0225 31.5131 53.4218 31.0414 52.6564C30.5697 51.8909 30.3466 50.9981 30.4027 50.1007C30.5028 48.9986 30.9604 47.9593 31.7058 47.1414C36.5506 42.5217 41.7998 38.3456 47.3902 34.6632C47.6953 34.4475 48.0424 34.2985 48.409 34.2257C48.6548 34.1804 48.9069 34.1804 49.1527 34.2257C49.4471 34.2831 49.7281 34.3955 49.9808 34.557C50.4919 34.8742 50.9049 35.3269 51.1741 35.8648C51.4434 36.4027 51.5582 37.0047 51.5058 37.6039C51.4411 39.1641 50.8953 40.666 49.9433 41.9039C46.5401 46.2957 42.632 50.272 38.2996 53.7507ZM54.5496 59.7789C54.0063 60.3375 53.2927 60.6997 52.521 60.8083C51.7494 60.9169 50.9635 60.7658 50.2871 60.3789C49.5751 60.0087 48.9691 59.4633 48.5262 58.7941C48.0834 58.1249 47.8182 57.3539 47.7558 56.5539C47.6833 55.8631 47.772 55.1649 48.0149 54.5142C48.2578 53.8636 48.6484 53.2781 49.1558 52.8039C53.8995 48.4286 58.989 44.4437 64.3746 40.8882C64.5371 40.7851 64.6871 40.682 64.8652 40.5757C65.3356 40.2361 65.9056 40.0626 66.4855 40.0824C67.0654 40.1022 67.6222 40.3142 68.0683 40.6851C68.5 41.0508 68.8055 41.5433 68.9413 42.0925C69.077 42.6417 69.0362 43.2198 68.8246 43.7445C68.1433 46.0138 66.8858 48.068 65.1746 49.707C61.7277 53.1507 58.1433 56.4664 54.5558 59.7664L54.5496 59.7789ZM73.0215 63.657C71.0288 67.0052 68.5341 70.0279 65.6246 72.6195C64.5163 73.6882 63.3652 74.7101 62.1715 75.6851C61.5393 76.2097 60.7791 76.557 59.9687 76.6914C59.1583 76.8258 58.3267 76.7425 57.559 76.4501C56.7913 76.1576 56.1151 75.6665 55.5995 75.027C55.0839 74.3874 54.7475 73.6224 54.6246 72.8101C54.5745 72.3585 54.6144 71.9014 54.7421 71.4653C54.8698 71.0292 55.0826 70.6228 55.3683 70.2695C59.6209 65.6515 64.4809 61.6325 69.8152 58.3226C69.8801 58.2975 69.9488 58.2837 70.0183 58.282L70.3308 58.5945C69.4558 59.532 68.5559 60.4257 67.7152 61.3851C67.4625 61.7559 67.2528 62.1543 67.0902 62.5726C67.5527 62.7101 68.0933 63.0726 68.4683 62.9445C69.9777 62.4382 71.4621 61.8507 73.0527 61.2257L74.3371 60.7257C73.8559 61.7882 73.5121 62.757 73.0277 63.6445L73.0215 63.657ZM77.3121 55.7351C76.1464 57.2191 74.6854 58.445 73.0215 59.3351C72.5069 59.6226 71.9788 59.8914 71.4371 60.1414C71.9933 58.0132 72.5496 56.0414 73.0215 54.0476L73.0402 53.9664C73.5032 52.0086 74.3837 50.1741 75.6215 48.5882C76.3808 47.5914 77.234 47.9882 78.1058 48.2039C78.9121 48.4007 79.1152 48.9914 79.1496 49.7664C79.2777 51.9077 78.6273 54.0231 77.3184 55.7226L77.3121 55.7351ZM84.6246 29.1726C82.8184 34.6414 80.9902 40.1101 79.2277 45.5851C78.8965 46.6132 78.4465 46.8007 77.4746 46.182L82.109 25.5789L82.8215 22.4164L86.5715 23.2945L85.8184 25.5789L84.6246 29.1726Z" fill="black"/>
</svg>
