<svg width="101" height="100" viewBox="0 0 101 100" fill="none" xmlns="http://www.w3.org/2000/svg">
<g clip-path="url(#clip0)">
<path d="M0.280762 50V100H100.281V0H0.280762V50Z" fill="#007ACC"/>
<path d="M22.3944 50.3321L22.3628 54.427H35.3784V91.4114H44.5854V54.427H57.6011V50.4114C57.6011 48.1888 57.5534 46.3317 57.4901 46.2841C57.4425 46.2208 49.5218 46.1888 39.9187 46.2048L22.4425 46.2524L22.3948 50.3317L22.3944 50.3321Z" fill="white"/>
<path d="M80.971 46.1357C83.5104 46.7708 85.4471 47.8974 87.2249 49.7388C88.1456 50.7232 89.5104 52.5169 89.6217 52.9454C89.653 53.0724 85.3042 55.9931 82.6694 57.6278C82.5741 57.6915 82.1928 57.2786 81.7643 56.6435C80.4788 54.7708 79.1296 53.961 77.0659 53.8185C74.0346 53.6118 72.0819 55.1993 72.0979 57.8497C72.0979 58.6278 72.2089 59.088 72.5264 59.7232C73.1932 61.104 74.4311 61.9294 78.3202 63.6118C85.4788 66.6915 88.5421 68.7232 90.4471 71.6118C92.5741 74.8345 93.0503 79.9771 91.6057 83.8025C90.0186 87.9611 86.0823 90.7868 80.5421 91.7232C78.828 92.0247 74.7647 91.9771 72.9233 91.6439C68.9077 90.9294 65.0979 88.9454 62.7487 86.3423C61.828 85.3263 60.0342 82.6755 60.1456 82.4849C60.1932 82.4216 60.6057 82.1677 61.0659 81.8978C61.5104 81.6439 63.1932 80.6751 64.7803 79.7548L67.6534 78.088L68.2565 78.9771C69.0979 80.2626 70.9389 82.0247 72.0503 82.6118C75.2405 84.2946 79.6217 84.0564 81.7803 82.1196C82.701 81.2786 83.0819 80.4056 83.0819 79.1196C83.0819 77.961 82.9389 77.4532 82.3358 76.5806C81.5585 75.4693 79.971 74.5325 75.4628 72.5806C70.3042 70.3579 68.0819 68.9771 66.0503 66.7864C64.8757 65.5169 63.7643 63.4849 63.3042 61.7864C62.9233 60.3739 62.8276 56.8341 63.1296 55.4056C64.1932 50.4212 67.955 46.9454 73.3835 45.9134C75.1452 45.5802 79.2405 45.7071 80.971 46.136V46.1357Z" fill="white"/>
</g>
<defs>
<clipPath id="clip0">
<rect width="100" height="100" fill="white" transform="translate(0.280762)"/>
</clipPath>
</defs>
</svg>
