<svg width="101" height="100" viewBox="0 0 101 100" fill="none" xmlns="http://www.w3.org/2000/svg">
<g clip-path="url(#clip0)">
<path d="M0.581543 50V100H100.582V0H0.581543V50Z" fill="#007ACC"/>
<path d="M22.6952 50.3321L22.6636 54.427H35.6792V91.4114H44.8862V54.427H57.9019V50.4114C57.9019 48.1888 57.8542 46.3317 57.7909 46.2841C57.7433 46.2208 49.8226 46.1888 40.2194 46.2048L22.7433 46.2524L22.6956 50.3317L22.6952 50.3321Z" fill="white"/>
<path d="M81.2717 46.1357C83.8112 46.7708 85.7479 47.8974 87.5256 49.7388C88.4463 50.7232 89.8112 52.5169 89.9225 52.9454C89.9538 53.0724 85.6049 55.9931 82.9702 57.6278C82.8749 57.6915 82.4936 57.2786 82.0651 56.6435C80.7796 54.7708 79.4303 53.961 77.3667 53.8185C74.3354 53.6118 72.3827 55.1993 72.3987 57.8497C72.3987 58.6278 72.5096 59.088 72.8272 59.7232C73.494 61.104 74.7319 61.9294 78.621 63.6118C85.7796 66.6915 88.8428 68.7232 90.7479 71.6118C92.8749 74.8345 93.351 79.9771 91.9065 83.8025C90.3194 87.9611 86.3831 90.7868 80.8428 91.7232C79.1288 92.0247 75.0655 91.9771 73.2241 91.6439C69.2085 90.9294 65.3987 88.9454 63.0495 86.3423C62.1288 85.3263 60.335 82.6755 60.4464 82.4849C60.494 82.4216 60.9065 82.1677 61.3667 81.8978C61.8112 81.6439 63.494 80.6751 65.0811 79.7548L67.9542 78.088L68.5573 78.9771C69.3987 80.2626 71.2397 82.0247 72.351 82.6118C75.5413 84.2946 79.9225 84.0564 82.0811 82.1196C83.0018 81.2786 83.3827 80.4056 83.3827 79.1196C83.3827 77.961 83.2397 77.4532 82.6366 76.5806C81.8592 75.4693 80.2717 74.5325 75.7635 72.5806C70.6049 70.3579 68.3827 68.9771 66.351 66.7864C65.1764 65.5169 64.0651 63.4849 63.6049 61.7864C63.2241 60.3739 63.1284 56.8341 63.4303 55.4056C64.494 50.4212 68.2557 46.9454 73.6842 45.9134C75.446 45.5802 79.5413 45.7071 81.2717 46.136V46.1357Z" fill="white"/>
</g>
<defs>
<clipPath id="clip0">
<rect width="100" height="100" fill="white" transform="translate(0.581543)"/>
</clipPath>
</defs>
</svg>
