<svg width="16" height="16" viewBox="0 0 16 16" fill="none" xmlns="http://www.w3.org/2000/svg">
<path d="M7.99993 12.5256C10.4994 12.5256 12.5257 10.4994 12.5257 7.99987C12.5257 5.50037 10.4994 3.47412 7.99993 3.47412C5.50043 3.47412 3.47418 5.50037 3.47418 7.99987C3.47418 10.4994 5.50043 12.5256 7.99993 12.5256Z" fill="#FFD347"/>
<path d="M8.00008 1.77653C7.86655 1.77653 7.7583 1.66831 7.7583 1.53475V0.241781C7.7583 0.108219 7.86655 0 8.00008 0C8.13361 0 8.24186 0.108219 8.24186 0.241781V1.53478C8.24186 1.66831 8.13361 1.77653 8.00008 1.77653Z" fill="#CFA623"/>
<path d="M4.76752 2.64277C4.68395 2.64277 4.6027 2.59943 4.55792 2.52187L3.91146 1.40212C3.84471 1.28649 3.8843 1.13862 3.99996 1.07184C4.11561 1.00515 4.26346 1.04465 4.33024 1.16034L4.9767 2.28009C5.04345 2.39571 5.00386 2.54359 4.8882 2.61037C4.85011 2.63234 4.80855 2.64277 4.76752 2.64277Z" fill="#CFA623"/>
<path d="M2.40076 5.00913C2.35976 5.00913 2.31816 4.99869 2.2801 4.97669L1.16035 4.33022C1.04473 4.26347 1.0051 4.1156 1.07185 3.99994C1.1386 3.88429 1.28648 3.84472 1.40213 3.91144L2.52188 4.55791C2.63751 4.62466 2.67713 4.77254 2.61038 4.88819C2.56557 4.96579 2.48432 5.00913 2.40076 5.00913Z" fill="#CFA623"/>
<path d="M1.53475 8.24186H0.241781C0.10825 8.24186 0 8.13364 0 8.00008C0 7.86652 0.10825 7.7583 0.241781 7.7583H1.53478C1.66831 7.7583 1.77656 7.86652 1.77656 8.00008C1.77656 8.13364 1.66828 8.24186 1.53475 8.24186Z" fill="#CFA623"/>
<path d="M1.28145 12.1209C1.19789 12.1209 1.11664 12.0776 1.07186 12C1.00511 11.8844 1.0447 11.7365 1.16036 11.6697L2.28011 11.0233C2.39574 10.9566 2.54361 10.9961 2.61039 11.1118C2.67714 11.2274 2.63755 11.3753 2.52189 11.442L1.40214 12.0885C1.36405 12.1105 1.32245 12.1209 1.28145 12.1209Z" fill="#CFA623"/>
<path d="M4.12073 14.9606C4.07973 14.9606 4.03814 14.9501 4.00007 14.9281C3.88445 14.8614 3.84482 14.7135 3.91157 14.5978L4.55804 13.4781C4.62479 13.3624 4.77267 13.3229 4.88833 13.3896C5.00395 13.4563 5.04358 13.6042 4.97683 13.7199L4.33035 14.8396C4.28554 14.9172 4.20429 14.9606 4.12073 14.9606Z" fill="#CFA623"/>
<path d="M8.00008 16C7.86655 16 7.7583 15.8918 7.7583 15.7582V14.4652C7.7583 14.3316 7.86655 14.2234 8.00008 14.2234C8.13361 14.2234 8.24186 14.3316 8.24186 14.4652V15.7582C8.24186 15.8918 8.13361 16 8.00008 16Z" fill="#CFA623"/>
<path d="M11.8793 14.9606C11.7957 14.9606 11.7145 14.9173 11.6697 14.8397L11.0232 13.72C10.9565 13.6044 10.9961 13.4565 11.1117 13.3897C11.2273 13.323 11.3752 13.3625 11.442 13.4782L12.0885 14.598C12.1552 14.7136 12.1156 14.8615 12 14.9282C11.9619 14.9502 11.9203 14.9606 11.8793 14.9606Z" fill="#CFA623"/>
<path d="M14.7186 12.1209C14.6776 12.1209 14.636 12.1105 14.598 12.0885L13.4782 11.442C13.3626 11.3753 13.323 11.2274 13.3897 11.1118C13.4565 10.9961 13.6043 10.9565 13.72 11.0233L14.8397 11.6697C14.9554 11.7365 14.995 11.8844 14.9282 12C14.8834 12.0776 14.8022 12.1209 14.7186 12.1209Z" fill="#CFA623"/>
<path d="M15.7582 8.24186H14.4652C14.3316 8.24186 14.2234 8.13364 14.2234 8.00008C14.2234 7.86652 14.3316 7.7583 14.4652 7.7583H15.7582C15.8917 7.7583 16 7.86652 16 8.00008C16 8.13364 15.8917 8.24186 15.7582 8.24186Z" fill="#CFA623"/>
<path d="M13.5993 5.00921C13.5158 5.00921 13.4345 4.96586 13.3897 4.8883C13.323 4.77268 13.3626 4.6248 13.4782 4.55802L14.598 3.91156C14.7136 3.84487 14.8615 3.88437 14.9283 4.00006C14.995 4.11568 14.9554 4.26356 14.8398 4.33034L13.72 4.9768C13.6819 4.99877 13.6403 5.00921 13.5993 5.00921Z" fill="#CFA623"/>
<path d="M11.2324 2.64269C11.1914 2.64269 11.1498 2.63226 11.1117 2.61026C10.9961 2.54351 10.9565 2.39563 11.0232 2.27997L11.6697 1.16022C11.7364 1.04456 11.8843 1.005 12 1.07172C12.1156 1.13847 12.1552 1.28635 12.0885 1.402L11.442 2.52176C11.3972 2.59935 11.3159 2.64269 11.2324 2.64269Z" fill="#CFA623"/>
<path d="M8.00001 3.47437C7.8362 3.47437 7.67445 3.4833 7.51514 3.50024C9.78655 3.74221 11.5559 5.66437 11.5559 7.99996C11.5559 10.3356 9.78652 12.2577 7.51514 12.4997C7.67445 12.5167 7.83617 12.5256 8.00001 12.5256C10.4995 12.5256 12.5257 10.4994 12.5257 7.99996C12.5257 5.50052 10.4995 3.47437 8.00001 3.47437Z" fill="#D06B0D"/>
</svg>
